<?xml version="1.0" encoding="utf-8"?>
<svg id="master-artboard" viewBox="0 0 400 400" version="1.1" xmlns="http://www.w3.org/2000/svg" x="0px" y="0px" width="400px" height="400px" enable-background="new 0 0 1400 980"><rect id="ee-background" x="0" y="0" width="400" height="400" style="fill: white; fill-opacity: 0; pointer-events: none;"/>

<g transform="matrix(1, 0, 0, 1, -1033.880859375, -68.87565612792969)">
			<path fill="#FFFFFF" d="M1327.1,117.7c0-10.1-8.2-18.3-18.3-18.3h-158.5c-10.1,0-18.3,8.2-18.3,18.3V395h195V117.7z"/>
			<path d="M1327.1,397.1h-195c-1.2,0-2.1-1-2.1-2.1V117.7c0-11.3,9.2-20.4,20.4-20.4h158.5c11.3,0,20.4,9.2,20.4,20.4V395&#10;&#9;&#9;&#9;&#9;C1329.3,396.1,1328.3,397.1,1327.1,397.1z M1134.3,392.8H1325V117.7c0-8.9-7.2-16.1-16.1-16.1h-158.5c-8.9,0-16.1,7.2-16.1,16.1&#10;&#9;&#9;&#9;&#9;V392.8z"/>
		</g><path fill="#BCBEC0" d="M1132.1,395v35c0,10.1,8.2,18.3,18.3,18.3h158.5c10.1,0,18.3-8.2,18.3-18.3v-35H1132.1z" transform="matrix(1, 0, 0, 1, -1033.880859375, -68.87565612792969)"/><path d="M1308.9,450.4h-158.5c-11.3,0-20.4-9.2-20.4-20.4v-35c0-1.2,1-2.1,2.1-2.1h195c1.2,0,2.1,1,2.1,2.1v35&#10;&#9;&#9;&#9;&#9;C1329.3,441.3,1320.1,450.4,1308.9,450.4z M1134.3,397.1V430c0,8.9,7.2,16.1,16.1,16.1h158.5c8.9,0,16.1-7.2,16.1-16.1v-32.9&#10;&#9;&#9;&#9;&#9;H1134.3z" transform="matrix(1, 0, 0, 1, -1033.880859375, -68.87565612792969)"/><path d="M1308.3,379.3h-159.5c-1.2,0-2.1-1-2.1-2.1v-260c0-1.2,1-2.1,2.1-2.1h159.5c1.2,0,2.1,1,2.1,2.1v260&#10;&#9;&#9;&#9;C1310.4,378.3,1309.4,379.3,1308.3,379.3z M1150.9,375h155.2V119.3h-155.2V375z" transform="matrix(1, 0, 0, 1, -1033.880859375, -68.87565612792969)"/><path fill="#FFFFFF" d="M1244.9,420.1c0,8.4-6.8,15.2-15.2,15.2s-15.2-6.8-15.2-15.2c0-8.4,6.8-15.2,15.2-15.2&#10;&#9;&#9;&#9;S1244.9,411.7,1244.9,420.1z" transform="matrix(1, 0, 0, 1, -1033.880859375, -68.87565612792969)"/><path d="M1229.6,437.5c-9.6,0-17.4-7.8-17.4-17.4s7.8-17.4,17.4-17.4c9.6,0,17.4,7.8,17.4,17.4S1239.2,437.5,1229.6,437.5z&#10;&#9;&#9;&#9; M1229.6,407c-7.2,0-13.1,5.9-13.1,13.1c0,7.2,5.9,13.1,13.1,13.1c7.2,0,13.1-5.9,13.1-13.1C1242.7,412.9,1236.9,407,1229.6,407z" transform="matrix(1, 0, 0, 1, -1033.880859375, -68.87565612792969)"/><path fill="#FFFFFF" d="M1212.9,326.8c0,7.2-5.8,13-12.9,13c-7.2,0-12.9-5.8-12.9-13c0-7.2,5.8-12.9,12.9-12.9&#10;&#9;&#9;&#9;&#9;C1207.1,313.9,1212.9,319.7,1212.9,326.8z" transform="matrix(1, 0, 0, 1, -1033.880859375, -68.87565612792969)"/><path fill="#FFFFFF" d="M1271.5,326.8c0,7.2-5.8,13-12.9,13s-12.9-5.8-12.9-13c0-7.2,5.8-12.9,12.9-12.9&#10;&#9;&#9;&#9;&#9;S1271.5,319.7,1271.5,326.8z" transform="matrix(1, 0, 0, 1, -1033.880859375, -68.87565612792969)"/></svg>