<?xml version="1.0" encoding="utf-8"?>
<svg id="master-artboard" viewBox="0 0 400 400" version="1.1" xmlns="http://www.w3.org/2000/svg" x="0px" y="0px" width="400px" height="400px" enable-background="new 0 0 1400 980"><rect id="ee-background" x="0" y="0" width="400" height="400" style="fill: white; fill-opacity: 0; pointer-events: none;"/>
<g transform="matrix(1, 0, 0, 1, -1023.4403076171875, -75.10624694824219)">
			<path fill="#FFFFFF" d="M1327.1,117.7c0-10.1-8.2-18.3-18.3-18.3h-158.5c-10.1,0-18.3,8.2-18.3,18.3V395h195V117.7z"/>
			<path d="M1327.1,397.1h-195c-1.2,0-2.1-1-2.1-2.1V117.7c0-11.3,9.2-20.4,20.4-20.4h158.5c11.3,0,20.4,9.2,20.4,20.4V395&#10;&#9;&#9;&#9;&#9;C1329.3,396.1,1328.3,397.1,1327.1,397.1z M1134.3,392.8H1325V117.7c0-8.9-7.2-16.1-16.1-16.1h-158.5c-8.9,0-16.1,7.2-16.1,16.1&#10;&#9;&#9;&#9;&#9;V392.8z"/>
		</g><path fill="#BCBEC0" d="M1132.1,395v35c0,10.1,8.2,18.3,18.3,18.3h158.5c10.1,0,18.3-8.2,18.3-18.3v-35H1132.1z" transform="matrix(1, 0, 0, 1, -1023.4403076171875, -75.10624694824219)"/><path d="M1308.9,450.4h-158.5c-11.3,0-20.4-9.2-20.4-20.4v-35c0-1.2,1-2.1,2.1-2.1h195c1.2,0,2.1,1,2.1,2.1v35&#10;&#9;&#9;&#9;&#9;C1329.3,441.3,1320.1,450.4,1308.9,450.4z M1134.3,397.1V430c0,8.9,7.2,16.1,16.1,16.1h158.5c8.9,0,16.1-7.2,16.1-16.1v-32.9&#10;&#9;&#9;&#9;&#9;H1134.3z" transform="matrix(1, 0, 0, 1, -1023.4403076171875, -75.10624694824219)"/><path d="M 1148.699951 117.199997 H 1308.199951 V 377.199997 H 1148.699951 V 117.199997 Z" fill="#E6E7E8" transform="matrix(1, 0, 0, 1, -1023.4403076171875, -75.10624694824219)"/><path d="M1308.3,379.3h-159.5c-1.2,0-2.1-1-2.1-2.1v-260c0-1.2,1-2.1,2.1-2.1h159.5c1.2,0,2.1,1,2.1,2.1v260&#10;&#9;&#9;&#9;C1310.4,378.3,1309.4,379.3,1308.3,379.3z M1150.9,375h155.2V119.3h-155.2V375z" transform="matrix(1, 0, 0, 1, -1023.4403076171875, -75.10624694824219)"/><path fill="#FFFFFF" d="M1244.9,420.1c0,8.4-6.8,15.2-15.2,15.2s-15.2-6.8-15.2-15.2c0-8.4,6.8-15.2,15.2-15.2&#10;&#9;&#9;&#9;S1244.9,411.7,1244.9,420.1z" transform="matrix(1, 0, 0, 1, -1023.4403076171875, -75.10624694824219)"/><path d="M1229.6,437.5c-9.6,0-17.4-7.8-17.4-17.4s7.8-17.4,17.4-17.4c9.6,0,17.4,7.8,17.4,17.4S1239.2,437.5,1229.6,437.5z&#10;&#9;&#9;&#9; M1229.6,407c-7.2,0-13.1,5.9-13.1,13.1c0,7.2,5.9,13.1,13.1,13.1c7.2,0,13.1-5.9,13.1-13.1C1242.7,412.9,1236.9,407,1229.6,407z" transform="matrix(1, 0, 0, 1, -1023.4403076171875, -75.10624694824219)"/><g transform="matrix(1, 0, 0, 1, -1023.4403076171875, -75.10624694824219)">
			<path fill="#FF6C64" d="M1258.6,244.6h-75.8l15.2,63.4h60.5c10.1,0,18.3-8.2,18.3-18.3v-26.8&#10;&#9;&#9;&#9;&#9;C1276.9,252.8,1268.7,244.6,1258.6,244.6z"/>
			<path d="M1258.6,310.1H1198c-1,0-1.9-0.7-2.1-1.6l-15.2-63.4c-0.2-0.6,0-1.3,0.4-1.8c0.4-0.5,1-0.8,1.7-0.8h75.8&#10;&#9;&#9;&#9;&#9;c11.3,0,20.4,9.2,20.4,20.4v26.8C1279,300.9,1269.9,310.1,1258.6,310.1z M1199.7,305.8h58.9c8.9,0,16.1-7.2,16.1-16.1v-26.8&#10;&#9;&#9;&#9;&#9;c0-8.9-7.2-16.1-16.1-16.1h-73.1L1199.7,305.8z"/>
		</g><path fill="#FFFFFF" d="M1212.9,326.8c0,7.2-5.8,13-12.9,13c-7.2,0-12.9-5.8-12.9-13c0-7.2,5.8-12.9,12.9-12.9&#10;&#9;&#9;&#9;&#9;C1207.1,313.9,1212.9,319.7,1212.9,326.8z" transform="matrix(1, 0, 0, 1, -1023.4403076171875, -75.10624694824219)"/><path d="M1199.9,342c-8.3,0-15.1-6.8-15.1-15.1c0-8.3,6.8-15.1,15.1-15.1c8.3,0,15.1,6.8,15.1,15.1&#10;&#9;&#9;&#9;&#9;C1215,335.2,1208.3,342,1199.9,342z M1199.9,316c-6,0-10.8,4.8-10.8,10.8c0,6,4.8,10.8,10.8,10.8c6,0,10.8-4.8,10.8-10.8&#10;&#9;&#9;&#9;&#9;C1210.7,320.9,1205.9,316,1199.9,316z" transform="matrix(1, 0, 0, 1, -1023.4403076171875, -75.10624694824219)"/><path fill="#FFFFFF" d="M1271.5,326.8c0,7.2-5.8,13-12.9,13s-12.9-5.8-12.9-13c0-7.2,5.8-12.9,12.9-12.9&#10;&#9;&#9;&#9;&#9;S1271.5,319.7,1271.5,326.8z" transform="matrix(1, 0, 0, 1, -1023.4403076171875, -75.10624694824219)"/><path d="M1258.6,342c-8.3,0-15.1-6.8-15.1-15.1c0-8.3,6.8-15.1,15.1-15.1c8.3,0,15.1,6.8,15.1,15.1&#10;&#9;&#9;&#9;&#9;C1273.7,335.2,1266.9,342,1258.6,342z M1258.6,316c-6,0-10.8,4.8-10.8,10.8c0,6,4.8,10.8,10.8,10.8c6,0,10.8-4.8,10.8-10.8&#10;&#9;&#9;&#9;&#9;C1269.4,320.9,1264.5,316,1258.6,316z" transform="matrix(1, 0, 0, 1, -1023.4403076171875, -75.10624694824219)"/><path d="M1245.6,329h-32.8c-1.2,0-2.1-1-2.1-2.1c0-1.2,1-2.1,2.1-2.1h32.8c1.2,0,2.1,1,2.1,2.1C1247.8,328,1246.8,329,1245.6,329&#10;&#9;&#9;&#9;&#9;z" transform="matrix(1, 0, 0, 1, -1023.4403076171875, -75.10624694824219)"/><path d="M1199.9,316c-0.9,0-1.8-0.6-2-1.5l-1.9-6c-0.4-1.1,0.3-2.3,1.4-2.7c1.1-0.4,2.3,0.3,2.7,1.4l1.9,6&#10;&#9;&#9;&#9;&#9;c0.4,1.1-0.3,2.3-1.4,2.7C1200.4,316,1200.1,316,1199.9,316z" transform="matrix(1, 0, 0, 1, -1023.4403076171875, -75.10624694824219)"/><path d="M1182.8,246.7c-1.1,0-2-0.8-2.1-1.9c-0.1-0.6-2-12-17.5-10.4c-1.2,0.1-2.2-0.7-2.4-1.9c-0.1-1.2,0.7-2.2,1.9-2.4&#10;&#9;&#9;&#9;&#9;c19.8-2.1,22.2,13.9,22.2,14c0.2,1.2-0.7,2.3-1.8,2.4C1183,246.7,1182.9,246.7,1182.8,246.7z" transform="matrix(1, 0, 0, 1, -1023.4403076171875, -75.10624694824219)"/><path d="M 1245.199951171875 183 L 1245.199951171875 117 L 1211.800048828125 117 L 1211.800048828125 183 L 1196.4000244140625 183 L 1228.5 224.8000030517578 L 1260.5999755859375 183 Z" fill="#03BAFF" transform="matrix(1, 0, 0, 1, -1023.4403076171875, -75.10624694824219)"/><path d="M1228.5,226.9c-0.7,0-1.3-0.3-1.7-0.8l-32.1-41.8c-0.5-0.6-0.6-1.5-0.2-2.3c0.4-0.7,1.1-1.2,1.9-1.2h13.3V117&#10;&#9;&#9;&#9;c0-1.2,1-2.1,2.1-2.1h33.4c1.2,0,2.1,1,2.1,2.1v63.9h13.3c0.8,0,1.6,0.5,1.9,1.2c0.4,0.7,0.3,1.6-0.2,2.3l-32.1,41.8&#10;&#9;&#9;&#9;C1229.8,226.6,1229.2,226.9,1228.5,226.9z M1200.8,185.1l27.7,36.1l27.7-36.1h-11.1c-1.2,0-2.1-1-2.1-2.1v-63.9H1214V183&#10;&#9;&#9;&#9;c0,1.2-1,2.1-2.1,2.1H1200.8z" transform="matrix(1, 0, 0, 1, -1023.4403076171875, -75.10624694824219)"/>
</svg>