<?xml version="1.0" encoding="utf-8"?>
<svg id="master-artboard" viewBox="0 0 400 400" version="1.1" xmlns="http://www.w3.org/2000/svg" x="0px" y="0px" width="400px" height="400px" enable-background="new 0 0 1400 980"><rect id="ee-background" x="0" y="0" width="400" height="400" style="fill: white; fill-opacity: 0; pointer-events: none;"/>
<g transform="matrix(1, 0, 0, 1, -992.640869140625, -636.0370178222656)">
			<g>
				<path fill="#F1F2F2" d="M1319.9,776.7c0-12.1-9.8-21.9-21.8-21.9h-218.5c-12.1,0-21.9,9.8-21.9,21.9v9.2h262.2V776.7z"/>
				<path d="M1319.9,788h-262.2c-1.2,0-2.1-1-2.1-2.1v-9.2c0-13.2,10.8-24,24-24h218.5c13.2,0,24,10.8,24,24v9.2&#10;&#9;&#9;&#9;&#9;&#9;C1322.1,787,1321.1,788,1319.9,788z M1059.8,783.7h257.9v-7c0-10.9-8.8-19.7-19.7-19.7h-218.5c-10.9,0-19.7,8.8-19.7,19.7V783.7&#10;&#9;&#9;&#9;&#9;&#9;z"/>
			</g>
			<g>
				<path fill="#F1F2F2" d="M1057.7,890c0,12.1,9.8,21.9,21.9,21.9h218.5c12.1,0,21.8-9.8,21.8-21.9v-66.1h-262.2V890z"/>
				<path d="M1298.1,914h-218.5c-13.2,0-24-10.8-24-24v-66.1c0-1.2,1-2.1,2.1-2.1h262.2c1.2,0,2.1,1,2.1,2.1V890&#10;&#9;&#9;&#9;&#9;&#9;C1322.1,903.3,1311.3,914,1298.1,914z M1059.8,826.1v64c0,10.9,8.8,19.7,19.7,19.7h218.5c10.9,0,19.7-8.8,19.7-19.7v-64H1059.8z&#10;&#9;&#9;&#9;&#9;&#9;"/>
			</g>
			<g>
				<path d="M 1057.699951 785.799988 H 1319.899963 V 823.899986 H 1057.699951 V 785.799988 Z" fill="#939598"/>
				<path d="M1319.9,826.1h-262.2c-1.2,0-2.1-1-2.1-2.1v-38.1c0-1.2,1-2.1,2.1-2.1h262.2c1.2,0,2.1,1,2.1,2.1v38.1&#10;&#9;&#9;&#9;&#9;&#9;C1322.1,825.1,1321.1,826.1,1319.9,826.1z M1059.8,821.8h257.9V788h-257.9V821.8z"/>
			</g>
		</g><path d="M1180.4,848h-99.5c-1.2,0-2.1-1-2.1-2.1s1-2.1,2.1-2.1h99.5c1.2,0,2.1,1,2.1,2.1S1181.6,848,1180.4,848z" transform="matrix(1, 0, 0, 1, -992.640869140625, -636.0370178222656)"/><path d="M1236,848h-27.8c-1.2,0-2.1-1-2.1-2.1s1-2.1,2.1-2.1h27.8c1.2,0,2.1,1,2.1,2.1S1237.1,848,1236,848z" transform="matrix(1, 0, 0, 1, -992.640869140625, -636.0370178222656)"/><path d="M1257.3,875.8h-176.3c-1.2,0-2.1-1-2.1-2.1s1-2.1,2.1-2.1h176.3c1.2,0,2.1,1,2.1,2.1S1258.5,875.8,1257.3,875.8z" transform="matrix(1, 0, 0, 1, -992.640869140625, -636.0370178222656)"/>
</svg>