<?xml version="1.0" encoding="utf-8"?>
<svg id="master-artboard" viewBox="0 0 400 400" version="1.1" xmlns="http://www.w3.org/2000/svg" x="0px" y="0px" enable-background="new 0 0 1400 980" width="400px" height="400px"><rect id="ee-background" x="0" y="0" width="400" height="400" style="fill: white; fill-opacity: 0; pointer-events: none;"/>
<g transform="matrix(1, 0, 0, 1, -33.81216430664065, -61.98895263671875)">
			<path fill="#BCBEC0" d="M370.7,202.7l-8.6-1.9c-5.8-10.5-14.6-19-24.9-24.1c-10.3-5.1-21.1-6.2-30.4-3.2l-1-0.9&#10;&#9;&#9;&#9;&#9;c-16.7-14.8-38.8-17.4-52.6-6.2c-1.3,1-2.5,2.2-3.6,3.5l-0.3,0.4l-1.9-0.9c-14.4-6.8-29.1-5.8-39.5,2.6&#10;&#9;&#9;&#9;&#9;c-4.4,3.6-7.7,8.3-9.7,14.1l-0.5,1.4l-2.1-0.4c-10.3-1.7-20,0.6-27.3,6.5c-7.2,5.9-11.5,14.9-11.9,25.4l-0.1,2.1l-1.5,0.2&#10;&#9;&#9;&#9;&#9;c-6,0.8-11.3,3.1-15.7,6.7c-10.3,8.4-14.3,22.7-10.5,38.1l0.5,2l-0.4,0.2c-1.5,0.8-2.9,1.8-4.1,2.8&#10;&#9;&#9;&#9;&#9;c-13.8,11.2-15.7,33.4-4.6,52.8l0.6,1.1c-4.8,8.5-5.9,19.2-3,30.4c2.9,11.1,9.4,21.5,18.5,29.3l0.1,8.8&#10;&#9;&#9;&#9;&#9;c0.1,7.8,5.5,13.8,10.9,16.3c4.8,2.2,9.7,1.9,13.3-0.9c43.6-22.4,84.3-48.9,120.9-78.6c0,0,0,0,0,0&#10;&#9;&#9;&#9;&#9;c36.6-29.8,70.1-63.7,99.7-100.9c3.4-2.9,4.8-7.7,3.6-12.8C383.1,210.9,378.3,204.4,370.7,202.7z"/>
			<g>
				<g>
					<g>
						<path fill="#FDB83E" d="M358.3,195.9l-9.6-2.1l0,0c-11.5-21.6-35.6-33.5-54.2-26.7l-0.1,0l-1.9-1.7&#10;&#9;&#9;&#9;&#9;&#9;&#9;&#9;c-17.6-15.7-40.8-16.9-53.1-2.9l-1.4,1.6l-3.4-1.6c-19.9-9.4-39.8-2.7-46.2,15.4l-1.1,3.1l-3.9-0.7&#10;&#9;&#9;&#9;&#9;&#9;&#9;&#9;c-20.1-3.4-35.8,9.4-36.6,29.8l-0.2,4l-3.3,0.4c-19,2.6-29.6,20.7-24.4,42.1l0.9,3.7l-1.9,1.1c-16.2,9.2-19.7,32.2-7.9,52.6&#10;&#9;&#9;&#9;&#9;&#9;&#9;&#9;l1.3,2.2l-0.1,0.1c-10.4,16.8-3.7,42.9,15.2,58.5l0,0l0.1,9.8c0.1,11.1,13.3,19.6,20.8,13.6c89-45.7,161.9-105.9,220.2-179.2&#10;&#9;&#9;&#9;&#9;&#9;&#9;&#9;C374.8,212.9,369.1,198.2,358.3,195.9z"/>
					</g>
					<g>
						<g>
							<path fill="#E66A24" d="M348.6,193.7L348.6,193.7c-11.5-21.6-35.6-33.5-54.2-26.7l-0.1,0l-1.9-1.7&#10;&#9;&#9;&#9;&#9;&#9;&#9;&#9;&#9;c-17.6-15.7-40.8-16.9-53.1-2.9l-1.4,1.6l-3.4-1.6c-19.9-9.4-39.8-2.7-46.2,15.4l-0.7,2c6.1-2.2,12.6-2.9,19-3.6&#10;&#9;&#9;&#9;&#9;&#9;&#9;&#9;&#9;c2.2-8.1,10.6-14.1,19-13.6c3.5,0.2,6.9,1.4,10.4,1.4c3.5,0,6.9-1.3,10.4-2.1c16.7-4.1,34.1,1.3,50.5,6.6&#10;&#9;&#9;&#9;&#9;&#9;&#9;&#9;&#9;c8,2.6,16.1,5.3,23.7,9c6.1,3,11.8,6.7,17.5,10.4c4.8,3.1,9.7,6.3,14.5,9.4c6.4,4.2,13.7,10.3,12.1,17.8&#10;&#9;&#9;&#9;&#9;&#9;&#9;&#9;&#9;c-0.8,3.5-3.5,6.4-4.3,9.9c-0.2,0.9-0.3,1.8-0.2,2.6c2.4-2.9,4.8-5.9,7.2-8.9c7.5-6.1,1.7-20.7-9.1-23.1L348.6,193.7z"/>
							<path fill="#E66A24" d="M184.9,180.9c0.2-0.1,0.4-0.2,0.5-0.2l-2.2-0.4c-20.1-3.4-35.8,9.4-36.6,29.8l-0.2,4l-3.3,0.4&#10;&#9;&#9;&#9;&#9;&#9;&#9;&#9;&#9;c-19,2.6-29.6,20.7-24.4,42.1l0.9,3.7l-1.9,1.1c-16.2,9.2-19.7,32.2-7.9,52.6l1.3,2.2l-0.1,0.1&#10;&#9;&#9;&#9;&#9;&#9;&#9;&#9;&#9;c-10.4,16.8-3.7,42.9,15.2,58.5l0,0l0.1,9.8c0.1,11.1,13.3,19.6,20.8,13.6c4-2.1,8-4.2,12-6.3c-2-1.4-4.1-2.7-6.1-4&#10;&#9;&#9;&#9;&#9;&#9;&#9;&#9;&#9;c-9.6-6.3-19.6-15.3-19.2-26.8c0.1-2.2,0.6-4.5,0-6.7c-0.6-2.3-2.4-4.2-3.9-6c-11.7-13.9-13.3-35.4-3.9-51&#10;&#9;&#9;&#9;&#9;&#9;&#9;&#9;&#9;c-9.8-13.6-8-34.3,4-46c3-2.9,6.5-5.4,8.2-9.2c1.1-2.5,1.2-5.3,1.6-8.1c1.8-11.5,9.9-21.8,20.6-26.2c3.5-1.5,7.7-2.7,9.3-6.1&#10;&#9;&#9;&#9;&#9;&#9;&#9;&#9;&#9;c0.7-1.5,0.8-3.2,1.1-4.8C172.1,189.7,178.1,183.9,184.9,180.9z"/>
						</g>
					</g>
					<g>
						<path fill="#603913" d="M269.2,321.4C269.2,321.4,269.2,321.4,269.2,321.4c-36.6,29.8-77.2,56.2-120.9,78.6&#10;&#9;&#9;&#9;&#9;&#9;&#9;&#9;c-3.6,2.8-8.5,3.1-13.3,0.9c-5.3-2.5-10.8-8.5-10.9-16.3l-0.1-8.8c-9.1-7.8-15.6-18.2-18.5-29.3c-2.9-11.1-1.8-21.9,3-30.4&#10;&#9;&#9;&#9;&#9;&#9;&#9;&#9;l-0.6-1.1c-11.1-19.4-9.2-41.6,4.6-52.8c1.3-1,2.7-2,4.1-2.8l0.4-0.2l-0.5-2c-3.7-15.5,0.2-29.7,10.5-38.1&#10;&#9;&#9;&#9;&#9;&#9;&#9;&#9;c4.4-3.6,9.7-5.9,15.7-6.7l1.5-0.2l0.1-2.1c0.4-10.5,4.6-19.5,11.9-25.4c7.2-5.9,16.9-8.2,27.3-6.5l2.1,0.4l0.5-1.4&#10;&#9;&#9;&#9;&#9;&#9;&#9;&#9;c2-5.7,5.3-10.4,9.7-14.1c10.3-8.4,25.1-9.4,39.5-2.6l1.9,0.9l0.3-0.4c1.1-1.3,2.3-2.4,3.6-3.5c13.8-11.2,35.9-8.6,52.6,6.2&#10;&#9;&#9;&#9;&#9;&#9;&#9;&#9;l1,0.9c9.3-3,20-1.9,30.4,3.2c10.3,5.1,19.1,13.6,24.9,24.1l8.6,1.9c7.6,1.7,12.4,8.2,13.7,13.9c1.2,5.1-0.1,9.9-3.6,12.8&#10;&#9;&#9;&#9;&#9;&#9;&#9;&#9;C339.3,257.7,305.8,291.6,269.2,321.4z M115.3,265.6c-12.1,9.9-13.6,29.7-3.6,47.2l1.9,3.4l-0.8,1.2&#10;&#9;&#9;&#9;&#9;&#9;&#9;&#9;c-9.8,15.8-3.2,40.8,14.7,55.7l0.8,0.6l0.1,10.9c0.1,5.8,4.4,10.5,8.3,12.3c3.3,1.6,6.6,1.4,8.9-0.5l0.2-0.1l0.2-0.1&#10;&#9;&#9;&#9;&#9;&#9;&#9;&#9;c43.4-22.3,83.9-48.6,120.3-78.2c0,0,0,0,0,0c36.4-29.6,69.7-63.4,99.1-100.4l0.1-0.2l0.2-0.2c2.3-1.9,3.1-5,2.3-8.6&#10;&#9;&#9;&#9;&#9;&#9;&#9;&#9;c-1-4.3-4.7-9.4-10.4-10.7l-10.6-2.3l-0.5-0.9c-10.9-20.6-34.1-32.1-51.5-25.7l-1.4,0.5l-2.9-2.6c-15.1-13.4-34.8-16-46.9-6.1&#10;&#9;&#9;&#9;&#9;&#9;&#9;&#9;c-1.1,0.9-2.1,1.9-3.1,3l-2.5,2.8l-4.9-2.3c-12.8-6-25.8-5.3-34.8,2c-3.8,3.1-6.6,7.2-8.4,12.1l-1.7,4.9l-5.7-1&#10;&#9;&#9;&#9;&#9;&#9;&#9;&#9;c-9.1-1.5-17.5,0.4-23.8,5.5c-6.3,5.1-9.9,13-10.2,22.2l-0.2,5.8l-5.1,0.7c-5.2,0.7-9.7,2.6-13.5,5.7c-9,7.3-12.4,19.9-9,33.7&#10;&#9;&#9;&#9;&#9;&#9;&#9;&#9;l1.3,5.3l-3.3,1.9C117.6,263.9,116.4,264.7,115.3,265.6z"/>
					</g>
				</g>
				<g>
					<path fill="#603913" d="M127.6,376.5c-0.4,0.3-0.9,0.5-1.5,0.5c-1.2-0.1-2.1-1.1-2.1-2.3c0.1-1.1,1.6-26.4,22.5-32.1&#10;&#9;&#9;&#9;&#9;&#9;&#9;c1.2-0.3,2.4,0.4,2.7,1.5c0.3,1.2-0.4,2.4-1.5,2.7c-17.8,4.9-19.2,27.9-19.2,28.1C128.4,375.6,128.1,376.1,127.6,376.5z"/>
				</g>
				<g>
					<path fill="#603913" d="M113.6,316.2c-0.4,0.3-1,0.5-1.6,0.5c-1.2-0.1-2.1-1.2-2-2.4c0-0.2,0.5-5.5,3.7-11.4&#10;&#9;&#9;&#9;&#9;&#9;&#9;c3-5.5,9-12.6,20.7-15.3c1.2-0.3,2.4,0.5,2.6,1.6c0.3,1.2-0.5,2.4-1.6,2.6c-19.3,4.5-21,22.6-21,22.7&#10;&#9;&#9;&#9;&#9;&#9;&#9;C114.3,315.3,114,315.9,113.6,316.2z"/>
				</g>
				<g>
					<path fill="#603913" d="M153.2,244.2c-0.5,0.4-1.1,0.6-1.8,0.5c-15.8-2.7-27.2,15.7-27.3,15.9c-0.6,1-2,1.4-3,0.7&#10;&#9;&#9;&#9;&#9;&#9;&#9;c-1-0.6-1.4-2-0.7-3c0.5-0.9,13.1-21.2,31.8-17.9c1.2,0.2,2,1.3,1.8,2.5C153.9,243.4,153.6,243.9,153.2,244.2z"/>
				</g>
				<g>
					<path fill="#603913" d="M178.3,208c-0.6,0.5-1.6,0.7-2.4,0.3c-6.2-3-12.5-2.8-18.5,0.6c-4.6,2.6-7.3,6.2-7.3,6.2&#10;&#9;&#9;&#9;&#9;&#9;&#9;c-0.7,1-2.1,1.2-3.1,0.4c-1-0.7-1.2-2.1-0.4-3.1c0.1-0.2,13.1-17,31.2-8.1c1.1,0.5,1.5,1.8,1,2.9&#10;&#9;&#9;&#9;&#9;&#9;&#9;C178.7,207.5,178.5,207.8,178.3,208z"/>
				</g>
				<g>
					<path fill="#603913" d="M219.7,182.9c-0.8,0.7-2,0.7-2.8,0c-11.7-10.1-27.1,0.1-27.2,0.2c-1,0.7-2.4,0.4-3-0.6&#10;&#9;&#9;&#9;&#9;&#9;&#9;c-0.7-1-0.4-2.4,0.6-3c0.2-0.1,4.6-3.1,10.8-4.6c8.4-2,15.9-0.4,21.8,4.7c0.9,0.8,1,2.2,0.2,3.1&#10;&#9;&#9;&#9;&#9;&#9;&#9;C219.9,182.8,219.8,182.8,219.7,182.9z"/>
				</g>
				<g>
					<path fill="#603913" d="M270.9,180.4c-0.1,0.1-0.2,0.2-0.3,0.2c-1.1,0.6-2.4,0.2-3-0.9c-7.7-13.8-28-12.9-28.2-12.8&#10;&#9;&#9;&#9;&#9;&#9;&#9;c-1.2,0.1-2.2-0.9-2.3-2.1c-0.1-1.2,0.9-2.2,2.1-2.3c0.9-0.1,23.3-1.1,32.3,15.1C272,178.5,271.7,179.7,270.9,180.4z"/>
				</g>
				<g>
					<path fill="#603913" d="M316.3,194.1c-0.3,0.3-0.7,0.4-1.2,0.5c-1.2,0.1-2.3-0.8-2.4-2c-1.9-19.2-17.7-22.6-18.4-22.8&#10;&#9;&#9;&#9;&#9;&#9;&#9;c-1.2-0.2-2-1.4-1.7-2.6c0.2-1.2,1.4-2,2.6-1.7c0.2,0,5,1,10.2,4.8c4.7,3.5,10.6,10.1,11.7,21.8&#10;&#9;&#9;&#9;&#9;&#9;&#9;C317.2,193,316.9,193.7,316.3,194.1z"/>
				</g>
				<g>
					<path fill="#603913" d="M345.7,218.5c-0.7,0.6-1.5,1.1-2.3,1.5c-1.1,0.5-2.4,0.1-2.9-1c-0.5-1.1-0.1-2.4,1-2.9&#10;&#9;&#9;&#9;&#9;&#9;&#9;c7-3.4,6-16.9,5-21.8c-0.2-1.2,0.5-2.3,1.7-2.6c1.2-0.2,2.3,0.5,2.6,1.7C350.9,194.1,354.3,211.5,345.7,218.5z"/>
				</g>
				<g>
					<path fill="#603913" d="M154.9,354.3c-0.1,0.1-0.2,0.2-0.3,0.2c-1.1,0.6-2.4,0.2-3-0.9c-0.3-0.5-6.6-12.1-10.5-29&#10;&#9;&#9;&#9;&#9;&#9;&#9;c-3.7-15.7-5.8-39.2,4.6-61.5c0.5-1.1,1.8-1.6,2.9-1.1c1.1,0.5,1.6,1.8,1.1,2.9c-9.9,21.2-7.8,43.5-4.3,58.6&#10;&#9;&#9;&#9;&#9;&#9;&#9;c3.8,16.4,10,27.9,10.1,28C156,352.5,155.7,353.6,154.9,354.3z"/>
				</g>
				<g>
					<path fill="#603913" d="M151.6,258.6c-0.6,0.5-1.6,0.7-2.3,0.3c-1.1-0.5-1.5-1.8-1-2.9c0.8-1.6,18.9-38.3,46.3-55&#10;&#9;&#9;&#9;&#9;&#9;&#9;c1-0.6,2.4-0.3,3,0.7c0.6,1,0.3,2.4-0.7,3c-26.3,16-44.5,52.8-44.7,53.2C152.1,258.2,151.9,258.4,151.6,258.6z"/>
				</g>
				<g>
					<path fill="#603913" d="M288,192.2c-0.6,0.5-1.5,0.7-2.3,0.3c-26.7-12.5-65.6,0.3-66,0.4c-1.1,0.4-2.4-0.2-2.8-1.4&#10;&#9;&#9;&#9;&#9;&#9;&#9;c-0.4-1.1,0.2-2.4,1.4-2.8c1.7-0.6,41-13.5,69.3-0.3c1.1,0.5,1.6,1.8,1.1,2.9C288.4,191.7,288.2,192,288,192.2z"/>
				</g>
				<g>
					<path fill="#603913" d="M329.7,216.1c-0.8,0.6-2,0.7-2.8,0c-0.1-0.1-14.9-12.2-29.2-18.4c-1.1-0.5-1.6-1.8-1.1-2.9&#10;&#9;&#9;&#9;&#9;&#9;&#9;c0.5-1.1,1.8-1.6,2.9-1.1c14.9,6.4,29.6,18.5,30.2,19c0.9,0.8,1.1,2.2,0.3,3.1C329.9,215.9,329.8,216,329.7,216.1z"/>
				</g>
				<path fill="#E66A24" d="M156.5,264.6c0.8-7,3.5-13.6,7.8-19.1c15.6-20.5,67.2-77.5,137.2-40.3c0,0,17.7,9.8,31.5,23.7&#10;&#9;&#9;&#9;&#9;&#9;c4.9,4.9,0.5,32.7-29.5,24c-21.5-6.3-47.1-12.4-83.2,10.2C188,283.3,153.1,293.8,156.5,264.6z"/>
				<path fill="#F9C573" d="M160.8,317.1c1.3,3.7,2.6,7.4,4,11.1c1.9,5.2,4,10.8,8.7,13.7c4.3,2.7,9.7,2.5,14.6,1.8&#10;&#9;&#9;&#9;&#9;&#9;c33.8-4.7,61.2-28.7,86.5-51.5c2-1.8,4-3.6,5-6.1c2.2-5.4-2.7-12.3-8.5-12c-4.1,0.2-7.5,3.1-10.6,5.8&#10;&#9;&#9;&#9;&#9;&#9;c-8.9,7.9-18.3,15.2-28.1,22c-11.4,7.9-25.6,15.2-38.5,10.3c-6.3-2.4-11.3-7.4-17.5-9.9s-15.2-1.1-17,5.4&#10;&#9;&#9;&#9;&#9;&#9;C158.6,310.7,159.7,314.1,160.8,317.1z"/>
			</g>
		</g>
</svg>