<?xml version="1.0" encoding="utf-8"?>
<svg id="master-artboard" viewBox="0 0 400 400" version="1.1" xmlns="http://www.w3.org/2000/svg" x="0px" y="0px" style="enable-background:new 0 0 1400 980;" width="400px" height="400px"><rect id="ee-background" x="0" y="0" width="400" height="400" style="fill: white; fill-opacity: 0; pointer-events: none;"/>






<g transform="matrix(1, 0, 0, 1, -18.582984924316406, -196.1538200378418)">
	
	<g transform="matrix(1.8373508453369138, 0, 0, 1.8373508453369138, -180.8706635760833, -399.95841909030537)">
		
		<g transform="matrix(0.9999999999999999, 0, 0, 0.9999999999999999, -7.86645643369161, 7.86645643369161)">
			
				<linearGradient id="SVGID_61_" gradientUnits="userSpaceOnUse" x1="288.8933" y1="396.5151" x2="411.6431" y2="396.5151" gradientTransform="matrix(-0.9997 2.388087e-02 2.388087e-02 0.9997 557.3452 -17.8305)">
				<stop offset="0" style="stop-color:#FDC70C"/>
				<stop offset="1" style="stop-color:#F08122"/>
			</linearGradient>
			<path class="st88" d="M155.2,385.2c0,0,51.7-41.2,119.5-19.7c0,0,18.7,41.5-34.9,47.4C186.3,418.8,167,400.5,155.2,385.2z" style="fill: url('#SVGID_61_');"/>
			<path class="st3" d="M274.8,369.4c0,0,4.9,25.3-15.1,27.2c-20,1.9-101-0.6-74.9-27.5c0,0-24.1,10.2-29.5,16.1&#10;&#9;&#9;&#9;&#9;c0,0,11.5,16.9,37.1,23.9c25.6,7,40.5,4.2,56.9-0.1s23.5-6.7,26.4-15.7C278.7,384.4,279,374.4,274.8,369.4z" style="fill: rgb(210, 119, 40);"/>
			<g>
				<g>
					<path class="st4" d="M227.8,419c1.6,1.5,4.8,1.3,8.3-1.9c3.5-3.1,4.3-6.3,2.7-7.9c-1.6-1.5-5.1-0.8-8.6,2.3&#10;&#9;&#9;&#9;&#9;&#9;&#9;C226.7,414.8,226.2,417.5,227.8,419z" style="fill: rgb(60, 36, 21);"/>
					<path class="st4" d="M213.6,420.7c2.1,2,6.1,1.8,10.4-2.1c4.3-3.8,5.2-7.9,3-9.9c-2.1-2-6.5-1.2-10.7,2.7&#10;&#9;&#9;&#9;&#9;&#9;&#9;C212.1,415.2,211.5,418.7,213.6,420.7z" style="fill: rgb(60, 36, 21);"/>
					<path class="st4" d="M197.4,417.6c1.5,2.4,5.5,3.2,10.7,0.6c5.3-2.6,7.3-6.3,5.8-8.7c-1.5-2.4-5.9-2.7-11.2-0.1&#10;&#9;&#9;&#9;&#9;&#9;&#9;C197.4,412,195.9,415.2,197.4,417.6z" style="fill: rgb(60, 36, 21);"/>
					<path class="st4" d="M181.8,410.6c0.4,2.7,3.8,4.7,9.7,4.1c5.9-0.6,9.3-3.1,8.9-5.8s-4.4-4.4-10.3-3.9&#10;&#9;&#9;&#9;&#9;&#9;&#9;C184.1,405.6,181.4,407.9,181.8,410.6z" style="fill: rgb(60, 36, 21);"/>
					<path class="st4" d="M150.6,388.3c-0.3,2.1,1.2,4.2,4.7,4.7s5.9-0.8,6.3-2.9c0.3-2.1-1.6-4.1-5.1-4.6S150.9,386.2,150.6,388.3z&#10;&#9;&#9;&#9;&#9;&#9;&#9;" style="fill: rgb(60, 36, 21);"/>
					<path class="st4" d="M155.5,394.7c-0.3,2.2,1.9,4.5,6.8,5.3c4.9,0.8,8.3-0.6,8.6-2.8c0.3-2.2-2.5-4.4-7.4-5.2&#10;&#9;&#9;&#9;&#9;&#9;&#9;C158.6,391.2,155.8,392.5,155.5,394.7z" style="fill: rgb(60, 36, 21);"/>
					<path class="st4" d="M165.7,401.9c-0.4,2.6,2.3,5.4,8.2,6.3s9.9-0.7,10.3-3.3c0.4-2.6-3-5.3-8.9-6.2&#10;&#9;&#9;&#9;&#9;&#9;&#9;C169.5,397.7,166.1,399.3,165.7,401.9z" style="fill: rgb(60, 36, 21);"/>
				</g>
				
					<linearGradient id="SVGID_62_" gradientUnits="userSpaceOnUse" x1="353.6381" y1="316.1477" x2="365.0896" y2="316.1477" gradientTransform="matrix(-0.9813 -0.1923 -0.1923 0.9813 647.9832 171.6439)">
					<stop offset="0" style="stop-color:#FDC70C"/>
					<stop offset="1" style="stop-color:#F08122"/>
				</linearGradient>
				<path class="st89" d="M229.1,417.6c1.6,1.5,4.8,1.3,8.3-1.9s4.3-6.3,2.7-7.9c-1.6-1.5-5.1-0.8-8.6,2.3S227.5,416.1,229.1,417.6z&#10;&#9;&#9;&#9;&#9;&#9;" style="fill: url('#SVGID_62_');"/>
				
					<linearGradient id="SVGID_63_" gradientUnits="userSpaceOnUse" x1="364.7662" y1="319.1606" x2="379.1742" y2="319.1606" gradientTransform="matrix(-0.9813 -0.1923 -0.1923 0.9813 647.9832 171.6439)">
					<stop offset="0" style="stop-color:#FDC70C"/>
					<stop offset="1" style="stop-color:#F08122"/>
				</linearGradient>
				<path class="st90" d="M214.9,419.3c2.1,2,6.1,1.8,10.4-2.1s5.2-7.9,3-9.9c-2.1-2-6.5-1.2-10.7,2.7&#10;&#9;&#9;&#9;&#9;&#9;C213.4,413.8,212.8,417.3,214.9,419.3z" style="fill: url('#SVGID_63_');"/>
				
					<linearGradient id="SVGID_64_" gradientUnits="userSpaceOnUse" x1="378.3621" y1="320.9293" x2="394.8771" y2="320.9293" gradientTransform="matrix(-0.9813 -0.1923 -0.1923 0.9813 647.9832 171.6439)">
					<stop offset="0" style="stop-color:#FDC70C"/>
					<stop offset="1" style="stop-color:#F08122"/>
				</linearGradient>
				<path class="st91" d="M198.6,416.2c1.5,2.4,5.5,3.2,10.7,0.6c5.3-2.6,7.3-6.3,5.8-8.7c-1.5-2.4-5.9-2.7-11.2-0.1&#10;&#9;&#9;&#9;&#9;&#9;C198.7,410.6,197.2,413.8,198.6,416.2z" style="fill: url('#SVGID_64_');"/>
				
					<linearGradient id="SVGID_65_" gradientUnits="userSpaceOnUse" x1="392.5245" y1="320.0177" x2="410.7651" y2="320.0177" gradientTransform="matrix(-0.9813 -0.1923 -0.1923 0.9813 647.9832 171.6439)">
					<stop offset="0" style="stop-color:#FDC70C"/>
					<stop offset="1" style="stop-color:#F08122"/>
				</linearGradient>
				<path class="st92" d="M183.1,409.2c0.4,2.7,3.8,4.7,9.7,4.1c5.9-0.6,9.3-3.1,8.9-5.8s-4.4-4.4-10.3-3.9&#10;&#9;&#9;&#9;&#9;&#9;C185.4,404.2,182.7,406.5,183.1,409.2z" style="fill: url('#SVGID_65_');"/>
				
					<linearGradient id="SVGID_66_" gradientUnits="userSpaceOnUse" x1="434.4288" y1="306.5204" x2="445.5176" y2="306.5204" gradientTransform="matrix(-0.9813 -0.1923 -0.1923 0.9813 647.9832 171.6439)">
					<stop offset="0" style="stop-color:#FDC70C"/>
					<stop offset="1" style="stop-color:#F08122"/>
				</linearGradient>
				<path class="st93" d="M151.8,386.9c-0.3,2.1,1.2,4.2,4.7,4.7s5.9-0.8,6.3-2.9c0.3-2.1-1.6-4.1-5.1-4.6S152.1,384.8,151.8,386.9z&#10;&#9;&#9;&#9;&#9;&#9;" style="fill: url('#SVGID_66_');"/>
				
					<linearGradient id="SVGID_67_" gradientUnits="userSpaceOnUse" x1="423.7909" y1="311.7751" x2="439.4595" y2="311.7751" gradientTransform="matrix(-0.9813 -0.1923 -0.1923 0.9813 647.9832 171.6439)">
					<stop offset="0" style="stop-color:#FDC70C"/>
					<stop offset="1" style="stop-color:#F08122"/>
				</linearGradient>
				<path class="st94" d="M156.7,393.3c-0.3,2.2,1.9,4.5,6.8,5.3c4.9,0.8,8.3-0.6,8.6-2.8c0.3-2.2-2.5-4.4-7.4-5.2&#10;&#9;&#9;&#9;&#9;&#9;C159.9,389.8,157.1,391.1,156.7,393.3z" style="fill: url('#SVGID_67_');"/>
				
					<linearGradient id="SVGID_68_" gradientUnits="userSpaceOnUse" x1="409.2331" y1="316.8789" x2="428.0001" y2="316.8789" gradientTransform="matrix(-0.9813 -0.1923 -0.1923 0.9813 647.9832 171.6439)">
					<stop offset="0" style="stop-color:#FDC70C"/>
					<stop offset="1" style="stop-color:#F08122"/>
				</linearGradient>
				<path class="st95" d="M167,400.5c-0.4,2.6,2.3,5.4,8.2,6.3s9.9-0.7,10.3-3.3c0.4-2.6-3-5.3-8.9-6.2S167.4,397.9,167,400.5z" style="fill: url('#SVGID_68_');"/>
			</g>
			<g>
				<path class="st4" d="M277.3,375.4c1.5-0.2,2.5-2.4,2-6.3c-0.5-3.9-2.2-6.1-3.7-5.9s-2.4,2.8-1.8,6.7&#10;&#9;&#9;&#9;&#9;&#9;C274.4,373.8,275.8,375.6,277.3,375.4z" style="fill: rgb(60, 36, 21);"/>
				<path class="st4" d="M277.8,383.9c1.5,0.2,3-1.7,3.5-5.6c0.4-3.9-0.6-6.5-2.1-6.6c-1.5-0.2-3,2.1-3.4,6&#10;&#9;&#9;&#9;&#9;&#9;C275.4,381.7,276.3,383.8,277.8,383.9z" style="fill: rgb(60, 36, 21);"/>
				<path class="st4" d="M277.4,393c1.5,0.2,3-1.7,3.5-5.6c0.4-3.9-0.6-6.5-2.1-6.6c-1.5-0.2-3,2.1-3.4,6&#10;&#9;&#9;&#9;&#9;&#9;C275,390.7,275.9,392.8,277.4,393z" style="fill: rgb(60, 36, 21);"/>
				<path class="st4" d="M273.4,400.8c1.4,0.5,3.4-0.9,4.7-4.5c1.4-3.7,1.1-6.4-0.4-6.9c-1.4-0.5-3.4,1.3-4.8,5&#10;&#9;&#9;&#9;&#9;&#9;S272,400.2,273.4,400.8z" style="fill: rgb(60, 36, 21);"/>
				
					<linearGradient id="SVGID_69_" gradientUnits="userSpaceOnUse" x1="476.4996" y1="73.0131" x2="486.2984" y2="73.0131" gradientTransform="matrix(-0.7817 -0.6236 -0.6236 0.7817 698.4792 610.7966)">
					<stop offset="0" style="stop-color:#F08122"/>
					<stop offset="1" style="stop-color:#FDC70C"/>
				</linearGradient>
				<path class="st96" d="M277.4,373.7c1.5-0.2,2.5-2.4,2-6.3c-0.5-3.9-2.2-6.1-3.7-5.9c-1.5,0.2-2.4,2.8-1.8,6.7&#10;&#9;&#9;&#9;&#9;&#9;S275.9,373.9,277.4,373.7z" style="fill: url('#SVGID_69_');"/>
				
					<linearGradient id="SVGID_70_" gradientUnits="userSpaceOnUse" x1="470.3777" y1="78.4263" x2="478.6059" y2="78.4263" gradientTransform="matrix(-0.7817 -0.6236 -0.6236 0.7817 698.4792 610.7966)">
					<stop offset="0" style="stop-color:#F08122"/>
					<stop offset="1" style="stop-color:#FDC70C"/>
				</linearGradient>
				<path class="st97" d="M277.9,382.2c1.5,0.2,3-1.7,3.5-5.6c0.4-3.9-0.6-6.5-2.1-6.6c-1.5-0.2-3,2.1-3.4,6&#10;&#9;&#9;&#9;&#9;&#9;C275.5,380,276.4,382.1,277.9,382.2z" style="fill: url('#SVGID_70_');"/>
				
					<linearGradient id="SVGID_71_" gradientUnits="userSpaceOnUse" x1="465.0529" y1="85.7405" x2="473.2811" y2="85.7405" gradientTransform="matrix(-0.7817 -0.6236 -0.6236 0.7817 698.4792 610.7966)">
					<stop offset="0" style="stop-color:#F08122"/>
					<stop offset="1" style="stop-color:#FDC70C"/>
				</linearGradient>
				<path class="st98" d="M277.5,391.3c1.5,0.2,3-1.7,3.5-5.6c0.4-3.9-0.6-6.5-2.1-6.6c-1.5-0.2-3,2.1-3.4,6&#10;&#9;&#9;&#9;&#9;&#9;C275.1,389,276,391.1,277.5,391.3z" style="fill: url('#SVGID_71_');"/>
				
					<linearGradient id="SVGID_72_" gradientUnits="userSpaceOnUse" x1="462.6806" y1="93.6652" x2="469.2834" y2="93.6652" gradientTransform="matrix(-0.7817 -0.6236 -0.6236 0.7817 698.4792 610.7966)">
					<stop offset="0" style="stop-color:#F08122"/>
					<stop offset="1" style="stop-color:#FDC70C"/>
				</linearGradient>
				<path class="st99" d="M273.6,399.1c1.4,0.5,3.4-0.9,4.7-4.5c1.4-3.7,1.1-6.4-0.4-6.9c-1.4-0.5-3.4,1.3-4.8,5&#10;&#9;&#9;&#9;&#9;&#9;C271.7,396.3,272.1,398.6,273.6,399.1z" style="fill: url('#SVGID_72_');"/>
				<path class="st4" d="M269,406.8c1.6,0.8,3.8-0.3,5.6-3.8s1.5-6.3,0-7.1c-1.6-0.8-3.9,0.8-5.6,4.3&#10;&#9;&#9;&#9;&#9;&#9;C267.1,403.6,267.4,406,269,406.8z" style="fill: rgb(60, 36, 21);"/>
				
					<linearGradient id="SVGID_73_" gradientUnits="userSpaceOnUse" x1="461.7152" y1="100.9893" x2="468.4935" y2="100.9893" gradientTransform="matrix(-0.7817 -0.6236 -0.6236 0.7817 698.4792 610.7966)">
					<stop offset="0" style="stop-color:#F08122"/>
					<stop offset="1" style="stop-color:#FDC70C"/>
				</linearGradient>
				<path class="st100" d="M269.1,405.1c1.6,0.8,3.8-0.3,5.6-3.8c1.8-3.5,1.5-6.3,0-7.1c-1.6-0.8-3.9,0.8-5.6,4.3&#10;&#9;&#9;&#9;&#9;&#9;S267.5,404.3,269.1,405.1z" style="fill: url('#SVGID_73_');"/>
				<path class="st4" d="M260.2,412.4c1.3,1.1,3.8,0.6,6.3-2.5c2.5-3,3-5.8,1.6-6.9s-4-0.1-6.5,2.9&#10;&#9;&#9;&#9;&#9;&#9;C259.1,408.9,258.8,411.3,260.2,412.4z" style="fill: rgb(60, 36, 21);"/>
				
					<linearGradient id="SVGID_74_" gradientUnits="userSpaceOnUse" x1="463.9145" y1="110.7405" x2="470.2476" y2="110.7405" gradientTransform="matrix(-0.7817 -0.6236 -0.6236 0.7817 698.4792 610.7966)">
					<stop offset="0" style="stop-color:#F08122"/>
					<stop offset="1" style="stop-color:#FDC70C"/>
				</linearGradient>
				<path class="st101" d="M260.3,410.7c1.3,1.1,3.8,0.6,6.3-2.5c2.5-3,3-5.8,1.6-6.9s-4-0.1-6.5,2.9&#10;&#9;&#9;&#9;&#9;&#9;C259.2,407.2,259,409.6,260.3,410.7z" style="fill: url('#SVGID_74_');"/>
				<path class="st4" d="M250.2,415.8c1.5,1.3,4.3,0.7,7.1-2.6c2.8-3.3,3.2-6.5,1.7-7.8c-1.5-1.3-4.5-0.2-7.3,3.1&#10;&#9;&#9;&#9;&#9;&#9;C248.9,411.8,248.6,414.5,250.2,415.8z" style="fill: rgb(60, 36, 21);"/>
				
					<linearGradient id="SVGID_75_" gradientUnits="userSpaceOnUse" x1="469.1541" y1="118.9297" x2="476.4236" y2="118.9297" gradientTransform="matrix(-0.7817 -0.6236 -0.6236 0.7817 698.4792 610.7966)">
					<stop offset="0" style="stop-color:#F08122"/>
					<stop offset="1" style="stop-color:#FDC70C"/>
				</linearGradient>
				<path class="st102" d="M250.3,414.1c1.5,1.3,4.3,0.7,7.1-2.6c2.8-3.3,3.2-6.5,1.7-7.8c-1.5-1.3-4.5-0.2-7.3,3.1&#10;&#9;&#9;&#9;&#9;&#9;C249,410.1,248.7,412.8,250.3,414.1z" style="fill: url('#SVGID_75_');"/>
				<path class="st4" d="M239.8,416.6c1.1,1.6,3.9,1.8,7.5-0.7c3.6-2.5,4.8-5.4,3.7-7.1c-1.1-1.6-4.3-1.4-7.8,1.1&#10;&#9;&#9;&#9;&#9;&#9;S238.7,414.9,239.8,416.6z" style="fill: rgb(60, 36, 21);"/>
				
					<linearGradient id="SVGID_76_" gradientUnits="userSpaceOnUse" x1="474.6348" y1="126.2994" x2="482.7576" y2="126.2994" gradientTransform="matrix(-0.7817 -0.6236 -0.6236 0.7817 698.4792 610.7966)">
					<stop offset="0" style="stop-color:#F08122"/>
					<stop offset="1" style="stop-color:#FDC70C"/>
				</linearGradient>
				<path class="st103" d="M239.9,414.9c1.1,1.6,3.9,1.8,7.5-0.7s4.8-5.4,3.7-7.1c-1.1-1.6-4.3-1.4-7.8,1.1&#10;&#9;&#9;&#9;&#9;&#9;C239.7,410.7,238.8,413.2,239.9,414.9z" style="fill: url('#SVGID_76_');"/>
			</g>
			<path class="st20" d="M220.4,362.8c0,0,34.4-0.8,47.3,4.3c6.6,2.6,0.5,6.8-7.5,3.4C251.6,366.8,235.2,363.5,220.4,362.8z" style="fill: rgb(255, 242, 0);"/>
		</g>
		<g transform="matrix(0.9999999999999999, 0, 0, 0.9999999999999999, -7.86645643369161, 7.86645643369161)">
			<g>
				<path class="st3" d="M273,426.5c14,9.7,26.8,21.6,4.6,29.2c-29.6,10.1-59.4,6.2-68.4,3.9c-0.5,4-0.5,6.7-0.5,6.7&#10;&#9;&#9;&#9;&#9;&#9;c74.7,25.2,102.5-17.4,102.5-17.4S293.4,434.9,273,426.5z" style="fill: rgb(210, 119, 40);"/>
				
					<linearGradient id="SVGID_77_" gradientUnits="userSpaceOnUse" x1="210.9587" y1="424.5326" x2="295.964" y2="424.5326" gradientTransform="matrix(0.9994 -3.368612e-02 3.368612e-02 0.9994 -19.0824 25.3181)">
					<stop offset="0" style="stop-color:#FDC70C"/>
					<stop offset="1" style="stop-color:#F08122"/>
				</linearGradient>
				<path class="st104" d="M280,455.6c22.2-7.6,6.9-19.4-7.1-29.1c-11.7-4.8-24.3-7.8-34.9-5.4c-21.6,4.9-27.3,27.1-28.8,38.5&#10;&#9;&#9;&#9;&#9;&#9;C218.2,461.8,249.5,466.1,280,455.6z" style="fill: url('#SVGID_77_');"/>
			</g>
			<g>
				<g>
					<path class="st4" d="M217,476.7c-2.3,1.5-6.1,0.6-9.7-3.9c-3.6-4.5-4-8.6-1.7-10.1c2.3-1.5,6.3,0,10,4.5&#10;&#9;&#9;&#9;&#9;&#9;&#9;C219.2,471.7,219.3,475.2,217,476.7z" style="fill: rgb(60, 36, 21);"/>
					<path class="st4" d="M234,481.5c-3,2-7.8,0.9-12.3-4.6c-4.5-5.5-4.7-10.6-1.8-12.6c3-2,8.1-0.2,12.6,5.4&#10;&#9;&#9;&#9;&#9;&#9;&#9;C236.9,475.1,236.9,479.5,234,481.5z" style="fill: rgb(60, 36, 21);"/>
					<path class="st4" d="M254.4,481c-2.3,2.7-7.3,2.8-13.2-1.4c-5.9-4.2-7.7-9.1-5.4-11.7c2.3-2.7,7.8-2.1,13.7,2.1&#10;&#9;&#9;&#9;&#9;&#9;&#9;C255.4,474.1,256.7,478.3,254.4,481z" style="fill: rgb(60, 36, 21);"/>
					<path class="st4" d="M274.7,475.4c-1,3.2-5.5,5-12.6,3.1c-7.1-1.8-10.7-5.6-9.7-8.8c1-3.2,6.2-4.5,13.3-2.7&#10;&#9;&#9;&#9;&#9;&#9;&#9;C272.9,468.9,275.7,472.3,274.7,475.4z" style="fill: rgb(60, 36, 21);"/>
					<path class="st4" d="M317.1,454.4c0,2.6-2.3,4.8-6.6,4.8s-7.1-2.2-7-4.8c0-2.6,2.8-4.6,7.1-4.6S317.2,451.8,317.1,454.4z" style="fill: rgb(60, 36, 21);"/>
					<path class="st4" d="M309.9,461.2c0,2.8-3.2,5.1-9.4,5.1c-6.2,0-10-2.3-10-5.1s3.9-4.9,10.1-4.9S309.9,458.5,309.9,461.2z" style="fill: rgb(60, 36, 21);"/>
					<path class="st4" d="M296,468c0,3.3-3.8,6.1-11.2,6.1c-7.4,0-12-2.8-11.9-6.1c0-3.3,4.7-5.9,12.1-5.9&#10;&#9;&#9;&#9;&#9;&#9;&#9;C292.3,462.2,296,464.8,296,468z" style="fill: rgb(60, 36, 21);"/>
				</g>
				
					<linearGradient id="SVGID_78_" gradientUnits="userSpaceOnUse" x1="207.0342" y1="449.9499" x2="221.1607" y2="449.9499" gradientTransform="matrix(0.9994 -3.368612e-02 3.368612e-02 0.9994 -19.0824 25.3181)">
					<stop offset="0" style="stop-color:#FDC70C"/>
					<stop offset="1" style="stop-color:#F08122"/>
				</linearGradient>
				<path class="st105" d="M215.7,474.8c-2.3,1.5-6.1,0.6-9.7-3.9c-3.6-4.5-4-8.6-1.7-10.1c2.3-1.5,6.3,0,10,4.5&#10;&#9;&#9;&#9;&#9;&#9;C217.9,469.8,218,473.2,215.7,474.8z" style="fill: url('#SVGID_78_');"/>
				
					<linearGradient id="SVGID_79_" gradientUnits="userSpaceOnUse" x1="220.7618" y1="453.6664" x2="238.5353" y2="453.6664" gradientTransform="matrix(0.9994 -3.368612e-02 3.368612e-02 0.9994 -19.0824 25.3181)">
					<stop offset="0" style="stop-color:#FDC70C"/>
					<stop offset="1" style="stop-color:#F08122"/>
				</linearGradient>
				<path class="st106" d="M232.7,479.5c-3,2-7.8,0.9-12.3-4.6c-4.5-5.5-4.7-10.6-1.8-12.6c3-2,8.1-0.2,12.6,5.4&#10;&#9;&#9;&#9;&#9;&#9;C235.7,473.2,235.7,477.5,232.7,479.5z" style="fill: url('#SVGID_79_');"/>
				
					<linearGradient id="SVGID_80_" gradientUnits="userSpaceOnUse" x1="237.5336" y1="455.8484" x2="257.9064" y2="455.8484" gradientTransform="matrix(0.9994 -3.368612e-02 3.368612e-02 0.9994 -19.0824 25.3181)">
					<stop offset="0" style="stop-color:#FDC70C"/>
					<stop offset="1" style="stop-color:#F08122"/>
				</linearGradient>
				<path class="st107" d="M253.1,479c-2.3,2.7-7.3,2.8-13.2-1.4c-5.9-4.2-7.7-9.1-5.4-11.7c2.3-2.7,7.8-2.1,13.7,2.1&#10;&#9;&#9;&#9;&#9;&#9;C254.1,472.2,255.4,476.3,253.1,479z" style="fill: url('#SVGID_80_');"/>
				
					<linearGradient id="SVGID_81_" gradientUnits="userSpaceOnUse" x1="255.0043" y1="454.7238" x2="277.5057" y2="454.7238" gradientTransform="matrix(0.9994 -3.368612e-02 3.368612e-02 0.9994 -19.0824 25.3181)">
					<stop offset="0" style="stop-color:#FDC70C"/>
					<stop offset="1" style="stop-color:#F08122"/>
				</linearGradient>
				<path class="st108" d="M273.4,473.5c-1,3.2-5.5,5-12.6,3.1c-7.1-1.8-10.7-5.6-9.7-8.8c1-3.2,6.2-4.5,13.3-2.7&#10;&#9;&#9;&#9;&#9;&#9;C271.6,467,274.5,470.3,273.4,473.5z" style="fill: url('#SVGID_81_');"/>
				
					<linearGradient id="SVGID_82_" gradientUnits="userSpaceOnUse" x1="306.6971" y1="438.0736" x2="320.3763" y2="438.0736" gradientTransform="matrix(0.9994 -3.368612e-02 3.368612e-02 0.9994 -19.0824 25.3181)">
					<stop offset="0" style="stop-color:#FDC70C"/>
					<stop offset="1" style="stop-color:#F08122"/>
				</linearGradient>
				<path class="st109" d="M315.9,452.5c0,2.6-2.3,4.8-6.6,4.8s-7.1-2.2-7-4.8c0-2.6,2.8-4.6,7.1-4.6&#10;&#9;&#9;&#9;&#9;&#9;C313.7,447.9,315.9,449.8,315.9,452.5z" style="fill: url('#SVGID_82_');"/>
				
					<linearGradient id="SVGID_83_" gradientUnits="userSpaceOnUse" x1="293.5742" y1="444.5558" x2="312.903" y2="444.5558" gradientTransform="matrix(0.9994 -3.368612e-02 3.368612e-02 0.9994 -19.0824 25.3181)">
					<stop offset="0" style="stop-color:#FDC70C"/>
					<stop offset="1" style="stop-color:#F08122"/>
				</linearGradient>
				<path class="st110" d="M308.6,459.3c0,2.8-3.2,5.1-9.4,5.1s-10-2.3-10-5.1c0-2.8,3.9-4.9,10.1-4.9&#10;&#9;&#9;&#9;&#9;&#9;C305.5,454.4,308.6,456.5,308.6,459.3z" style="fill: url('#SVGID_83_');"/>
				
					<linearGradient id="SVGID_84_" gradientUnits="userSpaceOnUse" x1="275.6159" y1="450.8518" x2="298.7667" y2="450.8518" gradientTransform="matrix(0.9994 -3.368612e-02 3.368612e-02 0.9994 -19.0824 25.3181)">
					<stop offset="0" style="stop-color:#FDC70C"/>
					<stop offset="1" style="stop-color:#F08122"/>
				</linearGradient>
				<path class="st111" d="M294.7,466.1c0,3.3-3.8,6.1-11.2,6.1c-7.4,0-12-2.8-11.9-6.1c0-3.3,4.7-5.9,12.1-5.9&#10;&#9;&#9;&#9;&#9;&#9;C291,460.3,294.7,462.8,294.7,466.1z" style="fill: url('#SVGID_84_');"/>
			</g>
			<path class="st20" d="M282.1,435.1c0,0-22-13.9-41.1-12.4c-7.1,0.6-7.5,7.8,8.4,5.9C259.7,427.5,270.1,430.9,282.1,435.1z" style="fill: rgb(255, 242, 0);"/>
		</g>
		<g transform="matrix(0.9999999999999999, 0, 0, 0.9999999999999999, -7.86645643369161, 7.86645643369161)">
			<linearGradient id="SVGID_85_" gradientUnits="userSpaceOnUse" x1="164.8728" y1="481.2947" x2="197.4829" y2="419.5936">
				<stop offset="0" style="stop-color:#FDC70C"/>
				<stop offset="1" style="stop-color:#F08122"/>
			</linearGradient>
			<path class="st112" d="M227,450.6c0,0-3.5-31.9-62.4-36.6c0,0-47.9,23.2-5.6,62.6L227,450.6z" style="fill: url('#SVGID_85_');"/>
			<path d="M 188.700006 482.899994 A 3.6 2.4 0 0 1 185.100006 485.299994 A 3.6 2.4 0 0 1 181.500006 482.899994 A 3.6 2.4 0 0 1 185.100006 480.499994 A 3.6 2.4 0 0 1 188.700006 482.899994 Z" class="st22" style="fill: rgb(91, 60, 50);"/>
			<path d="M 187.900003 482.600006 A 3.1 2 0 0 1 184.800003 484.600006 A 3.1 2 0 0 1 181.700003 482.600006 A 3.1 2 0 0 1 184.800003 480.600006 A 3.1 2 0 0 1 187.900003 482.600006 Z" class="st23" style="fill: rgb(158, 104, 64);"/>
			<path d="M 201.299994 478.899994 A 4.9 3.3 0 0 1 196.399994 482.199994 A 4.9 3.3 0 0 1 191.499994 478.899994 A 4.9 3.3 0 0 1 196.399994 475.599994 A 4.9 3.3 0 0 1 201.299994 478.899994 Z" class="st22" style="fill: rgb(91, 60, 50);"/>
			<path d="M 200.199994 478.5 A 4.3 2.7 0 0 1 195.899994 481.2 A 4.3 2.7 0 0 1 191.599994 478.5 A 4.3 2.7 0 0 1 195.899994 475.8 A 4.3 2.7 0 0 1 200.199994 478.5 Z" class="st23" style="fill: rgb(158, 104, 64);"/>
			<path class="st22" d="M164.3,466c0,0,4.2,4.2,9.3,0C173.7,466,169.1,473.7,164.3,466z" style="fill: rgb(91, 60, 50);"/>
			<path class="st3" d="M169.7,448.3c0,0-33.7,16.9-21.5-15.4c0,0-6.1,0.8-6.1,6.7c0,5.8-0.8,28.2,18.7,36.3&#10;&#9;&#9;&#9;&#9;C160.9,475.9,158.1,466.5,169.7,448.3z" style="fill: rgb(210, 119, 40);"/>
			<linearGradient id="SVGID_86_" gradientUnits="userSpaceOnUse" x1="159.3775" y1="454.6115" x2="230.7962" y2="454.6115">
				<stop offset="0" style="stop-color:#FDC70C"/>
				<stop offset="1" style="stop-color:#F08122"/>
			</linearGradient>
			<path class="st113" d="M230.7,453.7c-0.1-0.5-3-12.2-13.5-18.3c-6.9-4-15.3-4.7-25.2-1.9c-31.1,8.7-32.6,42.8-32.7,43.1l0,0.8&#10;&#9;&#9;&#9;&#9;l0.8-0.1c51.1-3.7,70.2-22.8,70.4-23l0.3-0.3L230.7,453.7z M160.9,475.9c0.4-5.1,4.1-33.3,31.6-41c3.9-1.1,7.5-1.6,10.9-1.6&#10;&#9;&#9;&#9;&#9;c4.9,0,9.3,1.1,13.2,3.4c8.9,5.2,12.1,15,12.7,17C226.7,456,207.4,472.3,160.9,475.9z" style="fill: url('#SVGID_86_');"/>
			<g>
				<path class="st25" d="M161.4,471.9c-0.3,1.8-0.5,3.1-0.5,3.9c6.4-0.5,12.3-1.2,17.7-2.1c-1.1-0.4-2.2-0.9-3.4-1.5&#10;&#9;&#9;&#9;&#9;&#9;C175.2,472.2,167,478.7,161.4,471.9z" style="fill: rgb(210, 123, 40);"/>
				<path class="st25" d="M227.7,454.9c0.7-0.6,1.2-1,1.5-1.3c-0.1-0.4-0.3-1-0.6-1.8C228.7,452.9,228.5,454,227.7,454.9z" style="fill: rgb(210, 123, 40);"/>
				<path class="st25" d="M193.8,470.5c2-0.5,3.9-1.1,5.7-1.7c-1.1-0.3-2.3-0.6-3.6-1.1C195.9,467.7,195.2,469,193.8,470.5z" style="fill: rgb(210, 123, 40);"/>
				<path class="st25" d="M226.7,447.7c-2-3.7-5.2-8.1-10.2-11.1c-3.5-2-7.4-3.2-11.8-3.4c7.3,2.6,13.5,6.1,17,9.7&#10;&#9;&#9;&#9;&#9;&#9;C221.7,443,224.7,445,226.7,447.7z" style="fill: rgb(210, 123, 40);"/>
				<path class="st25" d="M213.2,463.5c2.9-1.3,5.3-2.6,7.4-3.8c-4.1,1.9-7.1,2-7.1,2S213.5,462.5,213.2,463.5z" style="fill: rgb(210, 123, 40);"/>
				<path class="st22" d="M220.6,459.7c1.8-0.8,3.8-1.9,5.9-3.5c0.5-0.4,0.9-0.8,1.2-1.2C226.3,456.1,224,457.8,220.6,459.7z" style="fill: rgb(91, 60, 50);"/>
				<path class="st22" d="M193.8,470.5c-4.6,1.2-9.6,2.3-15.2,3.3C186.2,476.4,191.2,473.1,193.8,470.5z" style="fill: rgb(91, 60, 50);"/>
				<path class="st22" d="M226.7,447.7c0.9,1.6,1.5,3.1,1.9,4.2C228.5,450.4,227.7,449,226.7,447.7z" style="fill: rgb(91, 60, 50);"/>
				<path class="st22" d="M213.2,463.5c-3.8,1.8-8.4,3.6-13.8,5.3C209.5,471.3,212.4,466.4,213.2,463.5z" style="fill: rgb(91, 60, 50);"/>
				<path class="st22" d="M228.6,451.9c-0.4-1.1-1-2.6-1.9-4.2c-2-2.7-5-4.7-5-4.7c-3.5-3.6-9.7-7.1-17-9.7c-0.5,0-0.9,0-1.4,0&#10;&#9;&#9;&#9;&#9;&#9;c-1.8,0-3.7,0.2-5.7,0.5c5.1,2.1,9.5,5,12,7.8c0,0,8.8,6.7,3.6,11.2c-5.2,4.5-9.8,4.7-9.8,4.7s-0.3,10.4-13.4,5.1&#10;&#9;&#9;&#9;&#9;&#9;c0,0-5.1,10.3-15.8,3.8c0,0-6.5,5.7-10.8-0.6c-0.1-0.2-0.3-0.4-0.4-0.7c-0.8,2.6-1.3,5-1.7,6.9c5.6,6.7,13.8,0.2,13.8,0.2&#10;&#9;&#9;&#9;&#9;&#9;c1.2,0.7,2.3,1.2,3.4,1.5c5.6-0.9,10.6-2,15.2-3.3c1.4-1.5,2.1-2.8,2.1-2.8c1.3,0.5,2.5,0.8,3.6,1.1c5.4-1.7,9.9-3.5,13.8-5.3&#10;&#9;&#9;&#9;&#9;&#9;c0.3-1.1,0.3-1.9,0.3-1.9s3-0.1,7.1-2c3.3-1.9,5.7-3.6,7.1-4.8C228.5,454,228.7,452.9,228.6,451.9z" style="fill: rgb(91, 60, 50);"/>
				<path class="st23" d="M163,465c0.1,0.2,0.3,0.5,0.4,0.7c4.3,6.3,10.8,0.6,10.8,0.6c10.7,6.6,15.8-3.8,15.8-3.8&#10;&#9;&#9;&#9;&#9;&#9;c13.2,5.3,13.4-5.1,13.4-5.1s4.6-0.2,9.8-4.7c5.2-4.5-3.6-11.2-3.6-11.2c-2.5-2.8-6.8-5.7-12-7.8c-1.7,0.3-3.4,0.6-5.2,1.1&#10;&#9;&#9;&#9;&#9;&#9;C173.9,440,166.2,454.5,163,465z" style="fill: rgb(158, 104, 64);"/>
			</g>
			<path class="st22" d="M187.8,461.3c0,0,17.2,11.5,16.1-10C203.8,451.3,207.9,475.4,187.8,461.3z" style="fill: rgb(91, 60, 50);"/>
			<path class="st22" d="M174.2,467.1c0,0,14.3,6.6,16.2-10C190.3,457,190.7,475.3,174.2,467.1z" style="fill: rgb(91, 60, 50);"/>
			<g>
				<path class="st26" d="M184.3,442.9c0,0-4,9.6-4.3,12.5c0,0-8.9,3.7-6.8-2C175.3,447.7,180.4,444,184.3,442.9z" style="fill: rgb(255, 255, 255);"/>
				<path class="st20" d="M178.9,450.3c0.8-1.6,4.6-6.5,5.5-7.3l-3.6,9.7C180.7,452.7,177.2,453.7,178.9,450.3z" style="fill: rgb(255, 242, 0);"/>
			</g>
			<g>
				<path class="st26" d="M207.8,445.7c0,0,10.2,1.9,13.1,1.5c0,0,5.6,7.9-0.5,7.1C214.5,453.4,209.7,449.2,207.8,445.7z" style="fill: rgb(255, 255, 255);"/>
				<path class="st20" d="M216.2,449.4c-1.7-0.4-7.3-3.1-8.3-3.8l10.3,1.5C218.1,447.1,219.9,450.4,216.2,449.4z" style="fill: rgb(255, 242, 0);"/>
			</g>
			<g>
				<path class="st27" d="M196.1,447.2c0.7-3.8-8.1,4.3-3.1,7C197.9,456.9,196.1,447.2,196.1,447.2z M193.2,453.4&#10;&#9;&#9;&#9;&#9;&#9;c-3.8-2.1,3-8.3,2.4-5.4C195.7,448,197,455.4,193.2,453.4z" style="fill: rgb(237, 28, 36);"/>
			</g>
			<g>
				<path class="st27" d="M180.4,457c-1.9-3.3-3.4,8.5,2.1,7.3C188,463.3,180.4,457,180.4,457z M182.1,463.6&#10;&#9;&#9;&#9;&#9;&#9;c-4.3,0.9-3.1-8.3-1.6-5.7C180.5,457.9,186.4,462.7,182.1,463.6z" style="fill: rgb(237, 28, 36);"/>
			</g>
			<path class="st22" d="M172.7,459c0,0,6.2,1.5,9.5-4.9C182.2,454.1,181.1,463.3,172.7,459z" style="fill: rgb(91, 60, 50);"/>
			<g>
				<path class="st72" d="M190.6,440.8c3.1-3-2-3.7-4.1-3.8c-0.7,0.3-1.4,0.6-2.1,1C185,440,188,443.4,190.6,440.8z" style="fill: none;"/>
				<path class="st28" d="M190.6,440.8c-2.6,2.6-5.6-0.8-6.2-2.9c-0.4,0.2-0.8,0.4-1.2,0.6c1.7,3.4,5.6,7.3,9,4.1&#10;&#9;&#9;&#9;&#9;&#9;c3.6-3.4-0.2-5.4-3.7-6.5c-0.7,0.3-1.4,0.5-2,0.8C188.6,437.1,193.7,437.8,190.6,440.8z" style="fill: rgb(0, 104, 56);"/>
			</g>
			<g>
				<path class="st4" d="M154.7,421.2c-1.2-1.3-0.6-3.9,2.7-7c3.3-3.1,6.3-4,7.5-2.7c1.2,1.3,0.1,4.2-3.2,7.3&#10;&#9;&#9;&#9;&#9;&#9;C158.5,421.9,155.9,422.5,154.7,421.2z" style="fill: rgb(60, 36, 21);"/>
				<path class="st4" d="M148.1,428.6c-1.5-0.9-1.5-3.7,0.9-7.5s5.2-5.4,6.7-4.4c1.5,0.9,1.1,4-1.3,7.9&#10;&#9;&#9;&#9;&#9;&#9;C152,428.3,149.6,429.5,148.1,428.6z" style="fill: rgb(60, 36, 21);"/>
				<path class="st4" d="M142,437c-1.5-0.9-1.5-3.7,0.9-7.5s5.2-5.4,6.7-4.4c1.5,0.9,1.1,4-1.3,7.9S143.5,437.9,142,437z" style="fill: rgb(60, 36, 21);"/>
				<path class="st4" d="M140,446.9c-1.7-0.5-2.4-3.2-1-7.5s3.6-6.5,5.3-6c1.7,0.5,2.1,3.6,0.7,7.9S141.7,447.4,140,446.9z" style="fill: rgb(60, 36, 21);"/>
				<linearGradient id="SVGID_87_" gradientUnits="userSpaceOnUse" x1="155.2484" y1="414.7787" x2="166.5206" y2="414.7787">
					<stop offset="0" style="stop-color:#F08122"/>
					<stop offset="1" style="stop-color:#FDC70C"/>
				</linearGradient>
				<path class="st114" d="M155.8,419.6c-1.2-1.3-0.6-3.9,2.7-7s6.3-4,7.5-2.7c1.2,1.3,0.1,4.2-3.2,7.3&#10;&#9;&#9;&#9;&#9;&#9;C159.6,420.3,157,420.9,155.8,419.6z" style="fill: url('#SVGID_87_');"/>
				<linearGradient id="SVGID_88_" gradientUnits="userSpaceOnUse" x1="148.2061" y1="421.0058" x2="157.6714" y2="421.0058">
					<stop offset="0" style="stop-color:#F08122"/>
					<stop offset="1" style="stop-color:#FDC70C"/>
				</linearGradient>
				<path class="st115" d="M149.2,427c-1.5-0.9-1.5-3.7,0.9-7.5c2.4-3.8,5.2-5.4,6.7-4.4c1.5,0.9,1.1,4-1.3,7.9&#10;&#9;&#9;&#9;&#9;&#9;S150.7,427.9,149.2,427z" style="fill: url('#SVGID_88_');"/>
				<linearGradient id="SVGID_89_" gradientUnits="userSpaceOnUse" x1="142.0805" y1="429.4198" x2="151.5459" y2="429.4198">
					<stop offset="0" style="stop-color:#F08122"/>
					<stop offset="1" style="stop-color:#FDC70C"/>
				</linearGradient>
				<path class="st116" d="M143.1,435.4c-1.5-0.9-1.5-3.7,0.9-7.5c2.4-3.8,5.2-5.4,6.7-4.4c1.5,0.9,1.1,4-1.3,7.9&#10;&#9;&#9;&#9;&#9;&#9;C146.9,435.1,144.6,436.3,143.1,435.4z" style="fill: url('#SVGID_89_');"/>
				<linearGradient id="SVGID_90_" gradientUnits="userSpaceOnUse" x1="139.3515" y1="438.5361" x2="146.9472" y2="438.5361">
					<stop offset="0" style="stop-color:#F08122"/>
					<stop offset="1" style="stop-color:#FDC70C"/>
				</linearGradient>
				<path class="st117" d="M141.1,445.3c-1.7-0.5-2.4-3.2-1-7.5s3.6-6.5,5.3-6c1.7,0.5,2.1,3.6,0.7,7.9&#10;&#9;&#9;&#9;&#9;&#9;C144.7,444,142.8,445.8,141.1,445.3z" style="fill: url('#SVGID_90_');"/>
				<path class="st4" d="M139.7,455.5c-2-0.4-3.2-3-2.3-7.4c0.9-4.4,3.2-6.8,5.1-6.4c2,0.4,2.9,3.5,2,7.9&#10;&#9;&#9;&#9;&#9;&#9;C143.6,454,141.7,455.9,139.7,455.5z" style="fill: rgb(60, 36, 21);"/>
				<linearGradient id="SVGID_91_" gradientUnits="userSpaceOnUse" x1="138.241" y1="446.9614" x2="146.0385" y2="446.9614">
					<stop offset="0" style="stop-color:#F08122"/>
					<stop offset="1" style="stop-color:#FDC70C"/>
				</linearGradient>
				<path class="st118" d="M140.8,453.9c-2-0.4-3.2-3-2.3-7.4c0.9-4.4,3.2-6.8,5.1-6.4c2,0.4,2.9,3.5,2,7.9&#10;&#9;&#9;&#9;&#9;&#9;C144.7,452.4,142.8,454.3,140.8,453.9z" style="fill: url('#SVGID_91_');"/>
				<path class="st4" d="M143.6,466.8c-2,0-3.8-2.2-3.9-6.7c-0.1-4.5,1.5-7.4,3.5-7.4s3.6,2.7,3.8,7.2&#10;&#9;&#9;&#9;&#9;&#9;C147,464.5,145.6,466.8,143.6,466.8z" style="fill: rgb(60, 36, 21);"/>
				<linearGradient id="SVGID_92_" gradientUnits="userSpaceOnUse" x1="140.771" y1="458.1789" x2="148.0563" y2="458.1789">
					<stop offset="0" style="stop-color:#F08122"/>
					<stop offset="1" style="stop-color:#FDC70C"/>
				</linearGradient>
				<path class="st119" d="M144.7,465.2c-2,0-3.8-2.2-3.9-6.7s1.5-7.4,3.5-7.4s3.6,2.7,3.8,7.2S146.7,465.2,144.7,465.2z" style="fill: url('#SVGID_92_');"/>
				<path class="st4" d="M150.2,477c-2.3,0.1-4.4-2.4-4.5-7.4c-0.1-5,1.7-8.1,4.1-8.2c2.3-0.1,4.2,3,4.3,8&#10;&#9;&#9;&#9;&#9;&#9;C154.2,474.4,152.5,477,150.2,477z" style="fill: rgb(60, 36, 21);"/>
				<linearGradient id="SVGID_93_" gradientUnits="userSpaceOnUse" x1="146.7984" y1="467.5993" x2="155.161" y2="467.5993">
					<stop offset="0" style="stop-color:#F08122"/>
					<stop offset="1" style="stop-color:#FDC70C"/>
				</linearGradient>
				<path class="st120" d="M151.3,475.4c-2.3,0.1-4.4-2.4-4.5-7.4s1.7-8.1,4.1-8.2c2.3-0.1,4.2,3,4.3,8&#10;&#9;&#9;&#9;&#9;&#9;C155.3,472.8,153.6,475.4,151.3,475.4z" style="fill: url('#SVGID_93_');"/>
				<path class="st4" d="M158.9,485.2c-2.2,0.7-4.8-1.2-6.3-6s-0.4-8.3,1.8-9s4.8,1.8,6.2,6.6S161.1,484.5,158.9,485.2z" style="fill: rgb(60, 36, 21);"/>
				<linearGradient id="SVGID_94_" gradientUnits="userSpaceOnUse" x1="153.1032" y1="476.0772" x2="162.4473" y2="476.0772">
					<stop offset="0" style="stop-color:#F08122"/>
					<stop offset="1" style="stop-color:#FDC70C"/>
				</linearGradient>
				<path class="st121" d="M160,483.6c-2.2,0.7-4.8-1.2-6.3-6s-0.4-8.3,1.8-9s4.8,1.8,6.2,6.6S162.2,482.9,160,483.6z" style="fill: url('#SVGID_94_');"/>
			</g>
			<path class="st20" d="M211.3,431c0,0-30-15.3-42.4-14.3c-7.4,0.6-2,6.8,8.5,6.5C188.3,422.8,199,426.2,211.3,431z" style="fill: rgb(255, 242, 0);"/>
		</g>
		
	</g>
</g></svg>