<?xml version="1.0" encoding="utf-8"?>
<svg id="master-artboard" viewBox="0 0 400 400" version="1.0" xmlns="http://www.w3.org/2000/svg" x="0px" y="0px" width="400px" height="400px" enable-background="new 0 0 1400 980"><rect id="ee-background" x="0" y="0" width="400" height="400" style="fill: white; fill-opacity: 0; pointer-events: none;"/>
<metadata><!--?xpacket begin="﻿" id="W5M0MpCehiHzreSzNTczkc9d"?-->

                                                                                                    
                                                                                                    
                                                                                                    
                                                                                                    
                                                                                                    
                                                                                                    
                                                                                                    
                                                                                                    
                                                                                                    
                                                                                                    
                                                                                                    
                                                                                                    
                                                                                                    
                                                                                                    
                                                                                                    
                                                                                                    
                                                                                                    
                                                                                                    
                                                                                                    
                                                                                                    
                           
<!--?xpacket end="w"?-->
	</metadata>







<path fill-rule="evenodd" clip-rule="evenodd" fill="#94743A" d="M570.85,278.483l77.174-6.214l15.162-17.149l175.849,10.313&#10;&#9;&#9;l-37.53,37.903c0,0-93.955,32.312-102.28,32.312c-8.452,0-103.645-33.181-103.645-33.181L570.85,278.483z" transform="matrix(0.010061320848762989, 0.7136469483375549, -0.7136469483375549, 0.010061320848762989, 442.35235595703125, -310.71337890625)"/><path fill-rule="evenodd" clip-rule="evenodd" fill="#E37325" d="M783.111,336.768c-5.844,65.368-70.219,37.903-63.258,7.332&#10;&#9;&#9;C722.838,330.678,783.111,336.768,783.111,336.768L783.111,336.768z" transform="matrix(0.010061320848762989, 0.7136469483375549, -0.7136469483375549, 0.010061320848762989, 442.35235595703125, -310.71337890625)"/><path fill-rule="evenodd" clip-rule="evenodd" fill="#F2952D" d="M779.382,338.506c0,0-12.056,47.226-46.354,22.122&#10;&#9;&#9;C698.604,335.524,779.382,338.506,779.382,338.506L779.382,338.506z" transform="matrix(0.010061320848762989, 0.7136469483375549, -0.7136469483375549, 0.010061320848762989, 442.35235595703125, -310.71337890625)"/><path fill-rule="evenodd" clip-rule="evenodd" fill="#F2952D" d="M714.014,309.8c-22.99,34.673,34.299,85.749,64.748,21.501&#10;&#9;&#9;L714.014,309.8z" transform="matrix(0.010061320848762989, 0.7136469483375549, -0.7136469483375549, 0.010061320848762989, 442.35235595703125, -310.71337890625)"/><path fill-rule="evenodd" clip-rule="evenodd" fill="#E37325" d="M714.014,309.8c-21.252,32.063,26.22,78.169,57.537,33.928&#10;&#9;&#9;l-7.954-0.124c-21.497,20.381-57.041-6.712-39.89-30.571L714.014,309.8z" transform="matrix(0.010061320848762989, 0.7136469483375549, -0.7136469483375549, 0.010061320848762989, 442.35235595703125, -310.71337890625)"/><path fill-rule="evenodd" clip-rule="evenodd" fill="#F2952D" d="M796.156,299.361c5.348,61.764-56.668,59.9-70.463,14.664&#10;&#9;&#9;L796.156,299.361z" transform="matrix(0.010061320848762989, 0.7136469483375549, -0.7136469483375549, 0.010061320848762989, 442.35235595703125, -310.71337890625)"/><path fill-rule="evenodd" clip-rule="evenodd" fill="#E37325" d="M796.28,301.349c3.854,59.776-56.916,57.415-70.587,12.677&#10;&#9;&#9;l3.605-0.745c2.984,2.11,6.584,4.723,10.935,8.077c45.857,35.666,48.097-11.31,48.097-11.31&#10;&#9;&#9;C790.316,304.581,793.301,302.22,796.28,301.349L796.28,301.349z" transform="matrix(0.010061320848762989, 0.7136469483375549, -0.7136469483375549, 0.010061320848762989, 442.35235595703125, -310.71337890625)"/><path fill-rule="evenodd" clip-rule="evenodd" fill="#F2952D" d="M708.919,270.156c0,0-17.275,20.009-1.494,39.022&#10;&#9;&#9;c15.661,19.138,54.931,21.747,65.244-9.444C783.111,268.416,708.919,270.156,708.919,270.156L708.919,270.156z" transform="matrix(0.010061320848762989, 0.7136469483375549, -0.7136469483375549, 0.010061320848762989, 442.35235595703125, -310.71337890625)"/><path fill-rule="evenodd" clip-rule="evenodd" fill="#E37325" d="M708.919,270.156c0,0-17.275,20.009-1.494,39.022&#10;&#9;&#9;c14.167,17.149,47.1,21.002,61.267-0.993c-4.47,0-9.941,0.124-16.774,0.372c-60.646,1.862-31.566-38.277-31.566-38.277&#10;&#9;&#9;C713.518,270.032,708.919,270.156,708.919,270.156L708.919,270.156z" transform="matrix(0.010061320848762989, 0.7136469483375549, -0.7136469483375549, 0.010061320848762989, 442.35235595703125, -310.71337890625)"/><path fill-rule="evenodd" clip-rule="evenodd" fill="#F2952D" d="M720.351,213.488c0,0-26.968,13.795-21.996,39.768&#10;&#9;&#9;c4.846,25.973,29.206,34.797,29.206,34.797l37.158,4.722c0,0,13.546-30.57,11.059-33.679&#10;&#9;&#9;C773.166,255.989,720.351,213.488,720.351,213.488L720.351,213.488z" transform="matrix(0.010061320848762989, 0.7136469483375549, -0.7136469483375549, 0.010061320848762989, 442.35235595703125, -310.71337890625)"/><path fill-rule="evenodd" clip-rule="evenodd" fill="#F2952D" d="M790.564,83.373l-6.709-1.368c0,0-20.88-10.438-31.193,9.693&#10;&#9;&#9;c-10.314,20.133,34.546,46.479,34.546,46.479S774.163,112.7,790.564,83.373L790.564,83.373z" transform="matrix(0.010061320848762989, 0.7136469483375549, -0.7136469483375549, 0.010061320848762989, 442.35235595703125, -310.71337890625)"/><path fill-rule="evenodd" clip-rule="evenodd" fill="#F2952D" d="M824.867,101.764c7.826-21.623-62.388-41.756-43.25,7.707&#10;&#9;&#9;C794.542,143.023,824.867,101.764,824.867,101.764L824.867,101.764z" transform="matrix(0.010061320848762989, 0.7136469483375549, -0.7136469483375549, 0.010061320848762989, 442.35235595703125, -310.71337890625)"/><path fill-rule="evenodd" clip-rule="evenodd" fill="#E37325" d="M824.867,101.764c3.477-9.568-8.327-18.765-20.88-21.871&#10;&#9;&#9;l0.124,1.492c0,0,11.436,4.35-5.716,17.024c-17.275,12.675,21,6.96,21,6.96s2.115-1.118,4.599-2.485&#10;&#9;&#9;C824.614,102.139,824.867,101.764,824.867,101.764L824.867,101.764z" transform="matrix(0.010061320848762989, 0.7136469483375549, -0.7136469483375549, 0.010061320848762989, 442.35235595703125, -310.71337890625)"/><path fill-rule="evenodd" clip-rule="evenodd" fill="#F2952D" d="M830.831,127.242l2.979-12.926&#10;&#9;&#9;c7.831-35.045-86.988-17.275-57.537,33.554C786.588,169.619,830.831,127.242,830.831,127.242L830.831,127.242z" transform="matrix(0.010061320848762989, 0.7136469483375549, -0.7136469483375549, 0.010061320848762989, 442.35235595703125, -310.71337890625)"/><path fill-rule="evenodd" clip-rule="evenodd" fill="#E37325" d="M830.831,127.242l2.979-12.926&#10;&#9;&#9;c2.488-11.185-5.467-17.024-16.401-18.02l-12.429,3.604c33.806-4.598,20.756,30.819-22.366,30.695&#10;&#9;&#9;c-7.582,0-10.69,1.492-11.56,3.603c0.373,1.865,0.869,3.605,1.49,5.594c2.735,4.102,8.203,8.077,8.203,8.077s10.811,0,23.611-0.249&#10;&#9;&#9;C817.906,139.669,830.831,127.242,830.831,127.242L830.831,127.242z" transform="matrix(0.010061320848762989, 0.7136469483375549, -0.7136469483375549, 0.010061320848762989, 442.35235595703125, -310.71337890625)"/><path fill-rule="evenodd" clip-rule="evenodd" fill="#F2952D" d="M741.479,157.689c0,0-26.099,6.711-31.566,32.808&#10;&#9;&#9;c-5.469,26.098,16.65,34.673,18.021,56.544l17.647-3.479l27.709-26.224C773.289,217.339,758.998,170.364,741.479,157.689&#10;&#9;&#9;L741.479,157.689z" transform="matrix(0.010061320848762989, 0.7136469483375549, -0.7136469483375549, 0.010061320848762989, 442.35235595703125, -310.71337890625)"/><path fill-rule="evenodd" clip-rule="evenodd" fill="#E37325" d="M741.479,157.689c0,0-26.099,6.711-31.566,32.808&#10;&#9;&#9;c-5.469,26.098,16.65,34.673,18.021,56.544l8.824-1.74c-2.984-13.296-8.575-26.718-10.194-37.158&#10;&#9;&#9;c-3.849-24.48,19.018-34.05,19.018-34.05l3.602-2.611c0.869-1.117,1.494-2.234,1.99-3.23&#10;&#9;&#9;C748.063,163.777,744.831,160.051,741.479,157.689L741.479,157.689z" transform="matrix(0.010061320848762989, 0.7136469483375549, -0.7136469483375549, 0.010061320848762989, 442.35235595703125, -310.71337890625)"/><path fill-rule="evenodd" clip-rule="evenodd" fill="#F2952D" d="M749.182,178.567c0,0-45.731-52.817,3.48-86.869&#10;&#9;&#9;c5.716,29.454,32.56,24.607,40.887,49.587L749.182,178.567z" transform="matrix(0.010061320848762989, 0.7136469483375549, -0.7136469483375549, 0.010061320848762989, 442.35235595703125, -310.71337890625)"/><path fill-rule="evenodd" clip-rule="evenodd" fill="#F2952D" d="M771.055,257.729c0,0-18.145,22.494-43.494,30.323&#10;&#9;&#9;c0,0,11.307,26.594,42.253,28.458c30.941,1.864,56.047-36.661,44.611-62.635C802.994,228.027,771.055,257.729,771.055,257.729&#10;&#9;&#9;L771.055,257.729z" transform="matrix(0.010061320848762989, 0.7136469483375549, -0.7136469483375549, 0.010061320848762989, 442.35235595703125, -310.71337890625)"/><path fill-rule="evenodd" clip-rule="evenodd" fill="#F2952D" d="M760.12,220.075c0,0-23.239-23.862-12.553-53.44&#10;&#9;&#9;c10.687-29.575,72.95-31.191,86.243-52.318c0,0,32.938,40.764-2.11,81.896C796.657,237.349,760.12,220.075,760.12,220.075&#10;&#9;&#9;L760.12,220.075z" transform="matrix(0.010061320848762989, 0.7136469483375549, -0.7136469483375549, 0.010061320848762989, 442.35235595703125, -310.71337890625)"/><path fill-rule="evenodd" clip-rule="evenodd" fill="#E37325" d="M760.12,220.075c0,0-6.093-6.215-10.69-16.406&#10;&#9;&#9;c13.05-11.93,30.076-16.9,44.988-21.871c30.573-10.44,49.339-31.44,27.962-52.569l-2.86-1.489c0.377-0.996,0.75-1.865,1.246-2.736&#10;&#9;&#9;c5.716-3.106,10.438-6.46,13.045-10.687c0,0,32.938,40.764-2.11,81.896C796.657,237.349,760.12,220.075,760.12,220.075&#10;&#9;&#9;L760.12,220.075z" transform="matrix(0.010061320848762989, 0.7136469483375549, -0.7136469483375549, 0.010061320848762989, 442.35235595703125, -310.71337890625)"/><path fill-rule="evenodd" clip-rule="evenodd" fill="#E37325" d="M796.657,270.156c-2.86,7.953-9.196,18.766-22.991,23.115&#10;&#9;&#9;c-9.444,2.981-23.115-2.485-41.011-8.575c-1.743-0.621-4.847-0.497-4.599,3.48c3.477,5.591,10.936,15.16,23.86,20.381&#10;&#9;&#9;c4.102,1.738,8.7,2.858,13.919,3.354l1.986,0.249c10.566,0.623,20.508-3.479,28.582-10.314&#10;&#9;&#9;c11.436-9.568,19.014-24.606,18.895-38.773C809.703,266.554,803.366,268.912,796.657,270.156L796.657,270.156z" transform="matrix(0.010061320848762989, 0.7136469483375549, -0.7136469483375549, 0.010061320848762989, 442.35235595703125, -310.71337890625)"/><path fill-rule="evenodd" clip-rule="evenodd" fill="#F2952D" d="M831.7,196.213c26.472,95.442-86.869,85.129-103.768,50.828&#10;&#9;&#9;C727.933,247.041,757.633,189.502,831.7,196.213L831.7,196.213z" transform="matrix(0.010061320848762989, 0.7136469483375549, -0.7136469483375549, 0.010061320848762989, 442.35235595703125, -310.71337890625)"/><path fill-rule="evenodd" clip-rule="evenodd" fill="#E37325" d="M780.996,107.729c-4.847-13.67-2.607-21.747,2.859-25.725&#10;&#9;&#9;c0,0-1.618-0.744-4.102-1.491c0,0-8.326,4.474-6.837,19.636c0.874,8.077-1.489,11.931-3.849,13.919&#10;&#9;&#9;c-0.501,0.373-0.998,0.745-1.494,0.993c1.742,1.244,3.48,2.361,5.219,3.605C774.535,114.441,777.516,110.836,780.996,107.729&#10;&#9;&#9;L780.996,107.729z" transform="matrix(0.010061320848762989, 0.7136469483375549, -0.7136469483375549, 0.010061320848762989, 442.35235595703125, -310.71337890625)"/><path fill-rule="evenodd" clip-rule="evenodd" fill="#E37325" d="M761.113,150.605c-24.729-25.975-13.174-49.587-9.693-55.427&#10;&#9;&#9;c0.497-0.871,0.869-1.367,0.869-1.367l-0.62,0.496c-25.479,20.382-20.384,46.354-12.181,63.878&#10;&#9;&#9;c2.239,4.847,4.723,8.948,6.838,12.303c0.372-1.366,0.744-2.609,1.241-3.854c0.248-0.745,0.496-1.365,0.869-2.11&#10;&#9;&#9;C751.048,159.055,755.521,154.457,761.113,150.605L761.113,150.605z" transform="matrix(0.010061320848762989, 0.7136469483375549, -0.7136469483375549, 0.010061320848762989, 442.35235595703125, -310.71337890625)"/><path fill-rule="evenodd" clip-rule="evenodd" fill="#E37325" d="M819.52,208.267c-1.241,10.564-5.219,25.477-17.022,35.296&#10;&#9;&#9;c-6.217,5.095-14.54,8.697-25.727,9.569c-2.359,0.248-4.847,0.248-7.454,0.248c-9.444-0.248-20.508-2.237-33.682-6.463&#10;&#9;&#9;c4.226,8.575,14.291,15.535,26.845,19.885c3.604,1.241,7.458,2.237,11.312,2.982c2.607,0.496,5.219,0.869,7.95,1.117&#10;&#9;&#9;c12.801-0.373,25.229-3.852,34.55-11.31c13.671-10.811,20.877-30.072,13.174-60.77l-0.749-2.857&#10;&#9;&#9;c-2.358-0.124-4.722-0.249-6.957-0.249c-0.62,0-1.241,0-1.862,0C820.017,196.585,820.27,201.559,819.52,208.267L819.52,208.267z" transform="matrix(0.010061320848762989, 0.7136469483375549, -0.7136469483375549, 0.010061320848762989, 442.35235595703125, -310.71337890625)"/><path fill-rule="evenodd" clip-rule="evenodd" fill="#E37325" d="M752.414,266.055c-20.504,9.819-63.255-7.332-33.802-42.129&#10;&#9;&#9;c-1.37-2.236-2.86-4.35-4.102-6.711c-6.093,4.599-15.038,13.422-16.654,25.976c-0.373,3.105-0.249,6.46,0.499,10.065&#10;&#9;&#9;c1.49,7.952,4.846,14.291,8.698,19.386c8.824,11.186,20.508,15.411,20.508,15.411c9.444-2.858,18.02-7.955,24.854-13.05&#10;&#9;&#9;c2.983-2.113,5.591-4.35,7.954-6.339C757.633,267.919,755.025,267.05,752.414,266.055L752.414,266.055z" transform="matrix(0.010061320848762989, 0.7136469483375549, -0.7136469483375549, 0.010061320848762989, 442.35235595703125, -310.71337890625)"/><path fill-rule="evenodd" clip-rule="evenodd" fill="#FFE6A9" d="M780.5,340.993c-0.249,1.738,0.123-0.995-0.125,0.497&#10;&#9;&#9;c-8.824,44.614-50.083,34.3-60.272,12.923c6.837,24.731,55.675,39.52,62.632-13.918c0.129-1.242-0.12,0.747,0-0.497&#10;&#9;&#9;C782.734,339.998,781.741,341.118,780.5,340.993L780.5,340.993z" transform="matrix(0.010061320848762989, 0.7136469483375549, -0.7136469483375549, 0.010061320848762989, 442.35235595703125, -310.71337890625)"/><path fill-rule="evenodd" clip-rule="evenodd" fill="#FFE6A9" d="M791.807,329.933c-14.043,20.506-44.612,15.659-58.903-8.948&#10;&#9;&#9;c-1.37-2.361,1.118,2.734,0,0l-3.232-0.124c-2.731-0.124-2.234-1.864-1.241,0.497C742.473,350.811,778.762,356.402,791.807,329.933&#10;&#9;&#9;L791.807,329.933z" transform="matrix(0.010061320848762989, 0.7136469483375549, -0.7136469483375549, 0.010061320848762989, 442.35235595703125, -310.71337890625)"/><path fill-rule="evenodd" clip-rule="evenodd" fill="#FFE6A9" d="M750.924,177.199c0.372-2.237,0.869-4.598,1.614-6.835&#10;&#9;&#9;c0.248-0.497,0.372-0.993,0.496-1.366c3.481-9.57,12.305-16.157,22.991-21.501c5.343-2.609,11.059-4.847,16.902-7.083&#10;&#9;&#9;c14.292-5.219,29.203-9.817,38.648-16.28c2.234-1.489,4.102-3.105,5.716-4.847c-1.987-3.229-3.481-4.971-3.481-4.971&#10;&#9;&#9;c-6.584,10.438-25.226,16.156-43.618,22.867c-0.993,0.372-1.986,0.745-2.984,0.993c-4.594,1.74-8.943,3.48-13.169,5.343&#10;&#9;&#9;c-11.56,5.222-21.253,11.685-25.603,21.005c-0.373,0.745-0.621,1.365-0.869,2.11c-0.869,2.487-1.614,4.973-1.987,7.458&#10;&#9;&#9;c-3.604,18.766,5.468,34.299,10.936,41.633c0.869-0.623,1.738-1.244,2.607-1.865C754.027,205.657,748.313,192.486,750.924,177.199&#10;&#9;&#9;L750.924,177.199z" transform="matrix(0.010061320848762989, 0.7136469483375549, -0.7136469483375549, 0.010061320848762989, 442.35235595703125, -310.71337890625)"/><path fill-rule="evenodd" clip-rule="evenodd" fill="#FFE6A9" d="M736.504,245.425c1.246-2.234,4.102-6.709,8.576-11.93&#10;&#9;&#9;c3.604-4.348,8.327-9.32,14.291-14.167c3.48-2.982,7.458-5.84,11.808-8.449c12.926-7.955,29.576-14.167,50.58-15.163&#10;&#9;&#9;c-21.128-0.372-38.275,4.599-51.821,11.682c-3.854,1.989-7.458,4.102-10.814,6.463c-0.869,0.621-1.738,1.242-2.607,1.865&#10;&#9;&#9;c-6.465,4.598-11.685,9.568-15.91,14.167c-8.695,9.444-12.673,17.148-12.673,17.148c4.847,9.817,17.396,17.648,32.436,21.623&#10;&#9;&#9;c4.226,1.12,8.571,1.864,13.05,2.363c4.598,0.497,9.316,0.621,14.043,0.248c-4.598-0.124-9.196-0.622-13.67-1.491&#10;&#9;&#9;c-3.854-0.745-7.707-1.741-11.312-2.982c-12.554-4.35-22.619-11.31-26.845-19.885C735.635,246.917,735.883,246.421,736.504,245.425&#10;&#9;&#9;L736.504,245.425z" transform="matrix(0.010061320848762989, 0.7136469483375549, -0.7136469483375549, 0.010061320848762989, 442.35235595703125, -310.71337890625)"/><path fill-rule="evenodd" clip-rule="evenodd" fill="#FFE6A9" d="M757.26,314.149c-4.846,2.857-10.313,4.35-15.904,4.723&#10;&#9;&#9;c-4.852,0.372-9.822-0.249-14.545-1.49c-4.971-1.368-9.568-3.604-13.546-6.463c-2.483-1.864-4.598-3.853-6.585-6.09&#10;&#9;&#9;c-3.105-3.854-4.971-7.704-5.839-11.434c0.373,4.971,2.113,10.44,6.584,15.783c1.242,1.616,2.736,3.106,4.351,4.474&#10;&#9;&#9;c4.846,3.978,10.686,6.96,17.026,8.452c7.081,1.738,14.664,1.738,21.497-0.251c4.35-1.241,8.451-3.354,11.932-6.336&#10;&#9;&#9;C760.492,315.143,758.874,314.771,757.26,314.149L757.26,314.149z" transform="matrix(0.010061320848762989, 0.7136469483375549, -0.7136469483375549, 0.010061320848762989, 442.35235595703125, -310.71337890625)"/><path fill-rule="evenodd" clip-rule="evenodd" fill="#FFE6A9" d="M765.339,346.958c-24.485,24.73-55.178,2.857-56.544-22.244&#10;&#9;&#9;c-2.115,28.086,34.05,55.176,60.521,21.995C768.07,346.833,766.705,346.958,765.339,346.958L765.339,346.958z" transform="matrix(0.010061320848762989, 0.7136469483375549, -0.7136469483375549, 0.010061320848762989, 442.35235595703125, -310.71337890625)"/><path fill-rule="evenodd" clip-rule="evenodd" fill="#FFE6A9" d="M767.822,312.161c-0.621-0.125-1.365-0.125-1.986-0.249&#10;&#9;&#9;c-5.219-0.496-9.817-1.616-13.919-3.354c-12.925-5.221-20.384-14.79-23.86-20.381l-0.496-0.124c0,0,5.592,13.047,19.51,21.499&#10;&#9;&#9;c2.98,1.864,6.337,3.48,10.189,4.598c1.614,0.621,3.232,0.993,4.971,1.368c2.363,0.496,4.971,0.869,7.583,0.993&#10;&#9;&#9;c9.817,0.621,19.013-2.858,26.716-8.7c14.043-10.686,22.866-29.451,20.259-45.731c-0.497,0.373-0.993,0.745-1.489,0.994&#10;&#9;&#9;c0.119,14.167-7.459,29.205-18.895,38.773C788.33,308.683,778.389,312.784,767.822,312.161L767.822,312.161z" transform="matrix(0.010061320848762989, 0.7136469483375549, -0.7136469483375549, 0.010061320848762989, 442.35235595703125, -310.71337890625)"/><path fill-rule="evenodd" clip-rule="evenodd" fill="#FFE6A9" d="M727.809,284.199c0,0-10.566-3.852-19.142-13.795&#10;&#9;&#9;c-0.497-0.62-0.869-1.117-1.366-1.74c-3.975-4.971-7.208-11.307-8.821-19.262c-0.375-2.113-0.499-4.226-0.623-6.212&#10;&#9;&#9;c-0.373,3.105-0.249,6.46,0.499,10.065c1.49,7.952,4.846,14.291,8.698,19.386c8.824,11.186,20.508,15.411,20.508,15.411&#10;&#9;&#9;c9.444-2.858,18.02-7.955,24.854-13.05c2.983-2.113,5.591-4.35,7.954-6.339c-1.121-0.372-2.114-0.621-3.232-0.993&#10;&#9;&#9;c-1.365,1.117-2.859,2.361-4.474,3.48c-1.242,0.993-2.611,1.987-4.102,2.858C742.597,278.109,735.511,281.838,727.809,284.199&#10;&#9;&#9;L727.809,284.199z" transform="matrix(0.010061320848762989, 0.7136469483375549, -0.7136469483375549, 0.010061320848762989, 442.35235595703125, -310.71337890625)"/><path fill-rule="evenodd" clip-rule="evenodd" fill="#FFE6A9" d="M712.645,192.237c3.853-17.896,17.275-26.72,25.354-30.449&#10;&#9;&#9;c-0.372-0.868-0.744-1.613-1.117-2.484c-7.707,3.232-22.991,12.054-26.969,31.193c-2.363,11.434,0.497,19.511,4.599,26.718&#10;&#9;&#9;c5.343,9.445,12.677,17.523,13.422,29.826c0,0,0.621-1.241,1.987-3.479c-2.359-10.564-9.569-18.145-14.043-27.341&#10;&#9;&#9;C712.52,209.635,710.533,202.303,712.645,192.237L712.645,192.237z" transform="matrix(0.010061320848762989, 0.7136469483375549, -0.7136469483375549, 0.010061320848762989, 442.35235595703125, -310.71337890625)"/><path fill-rule="evenodd" clip-rule="evenodd" fill="#FFE6A9" d="M739.488,158.186c-8.203-17.523-13.298-43.496,12.181-63.878&#10;&#9;&#9;c0.372-0.372,0.869-0.62,1.365-0.993c-0.124-0.496-0.248-1.119-0.372-1.616c-30.32,21.002-24.605,49.088-15.781,67.605&#10;&#9;&#9;c2.979,6.09,6.212,11.185,8.699,14.665c0.249-1.243,0.497-2.361,0.746-3.48C744.211,167.134,741.728,163.032,739.488,158.186&#10;&#9;&#9;L739.488,158.186z" transform="matrix(0.010061320848762989, 0.7136469483375549, -0.7136469483375549, 0.010061320848762989, 442.35235595703125, -310.71337890625)"/><path fill-rule="evenodd" clip-rule="evenodd" fill="#FFE6A9" d="M775.777,120.531c1.613-3.356,3.854-6.339,6.584-8.948&#10;&#9;&#9;c0-0.124,0-0.124,0-0.124c11.312-10.813,30.697-15.162,43.002-11.806c2.359,0.745,4.475,1.614,6.213,2.857&#10;&#9;&#9;c-1.49-1.864-3.605-3.354-6.088-4.35c-11.063-4.599-30.201-1.492-42.625,8.077c-0.75,0.498-1.246,0.995-1.867,1.491&#10;&#9;&#9;c-3.48,3.106-6.461,6.712-8.203,10.938C773.791,119.287,774.783,119.908,775.777,120.531L775.777,120.531z" transform="matrix(0.010061320848762989, 0.7136469483375549, -0.7136469483375549, 0.010061320848762989, 442.35235595703125, -310.71337890625)"/><path fill-rule="evenodd" clip-rule="evenodd" fill="#FFE6A9" d="M782.863,106.238c0.123-0.125,0.372-0.249,0.62-0.497&#10;&#9;&#9;C783.235,105.989,782.986,106.113,782.863,106.238L782.863,106.238z M789.323,83.123c7.334-3.852,18.642-2.235,27.341,2.239&#10;&#9;&#9;c-9.568-6.463-24.733-9.321-32.809-3.357c-5.467,3.978-7.706,12.055-2.859,25.725c-0.745,0.621,1.738-1.367,2.487-1.988&#10;&#9;&#9;C781.244,97.664,780.872,87.721,789.323,83.123L789.323,83.123z" transform="matrix(0.010061320848762989, 0.7136469483375549, -0.7136469483375549, 0.010061320848762989, 442.35235595703125, -310.71337890625)"/><path fill-rule="evenodd" clip-rule="evenodd" fill="#FFE6A9" d="M829.465,198.822c7.703,30.697,0.497,49.959-13.174,60.77&#10;&#9;&#9;c-9.32,7.458-21.749,10.937-34.55,11.31c1.866,0.25,3.853,0.374,5.72,0.374c10.065-0.622,19.759-3.232,27.838-8.202&#10;&#9;&#9;c0.496-0.249,0.992-0.621,1.489-0.994c15.781-10.688,24.481-31.442,14.912-65.866c-0.993-0.124-1.986-0.124-2.984-0.248&#10;&#9;&#9;C828.965,196.96,829.213,197.829,829.465,198.822L829.465,198.822z" transform="matrix(0.010061320848762989, 0.7136469483375549, -0.7136469483375549, 0.010061320848762989, 442.35235595703125, -310.71337890625)"/><path fill-rule="evenodd" clip-rule="evenodd" fill="#FFE6A9" d="M834.436,122.021c7.578,13.174,19.511,43.372-5.72,73.943&#10;&#9;&#9;c0.998,0.124,1.991,0.124,2.984,0.248c27.714-32.436,12.926-64.747,5.592-76.926C836.423,120.28,835.43,121.152,834.436,122.021&#10;&#9;&#9;L834.436,122.021z" transform="matrix(0.010061320848762989, 0.7136469483375549, -0.7136469483375549, 0.010061320848762989, 442.35235595703125, -310.71337890625)"/><path fill-rule="evenodd" clip-rule="evenodd" fill="#FFE6A9" d="M773.418,117.175c-7.582-5.095-14.668-11.062-17.647-23.86&#10;&#9;&#9;l-0.373-1.616c4.847-9.32,11.804-12.054,18.021-12.303c-6.837-0.496-15.289,1.616-20.756,12.303&#10;&#9;&#9;c0.124,0.497,0.248,1.12,0.372,1.616c3.232,13.919,11.308,19.759,19.759,25.353C772.917,118.17,773.166,117.671,773.418,117.175&#10;&#9;&#9;L773.418,117.175z" transform="matrix(0.010061320848762989, 0.7136469483375549, -0.7136469483375549, 0.010061320848762989, 442.35235595703125, -310.71337890625)"/><path fill-rule="evenodd" clip-rule="evenodd" fill="#F5AB4F" d="M784.725,150.357c-9.816,5.219-16.281,12.179-14.415,15.657&#10;&#9;&#9;c1.862,3.48,11.308,2.112,21.124-3.106c9.693-5.095,16.158-12.179,14.291-15.659C803.863,143.771,794.418,145.136,784.725,150.357&#10;&#9;&#9;L784.725,150.357z" transform="matrix(0.010061320848762989, 0.7136469483375549, -0.7136469483375549, 0.010061320848762989, 442.35235595703125, -310.71337890625)"/><path fill-rule="evenodd" clip-rule="evenodd" fill="#F5AB4F" d="M795.784,106.985c-7.082,3.727-11.804,8.947-10.438,11.558&#10;&#9;&#9;c1.366,2.485,8.203,1.489,15.409-2.361c7.21-3.729,11.932-8.948,10.566-11.558C809.951,102.139,802.994,103.132,795.784,106.985&#10;&#9;&#9;L795.784,106.985z" transform="matrix(0.010061320848762989, 0.7136469483375549, -0.7136469483375549, 0.010061320848762989, 442.35235595703125, -310.71337890625)"/><path fill-rule="evenodd" clip-rule="evenodd" fill="#F5AB4F" d="M777.268,124.01c-5.344-4.599-11.06-6.711-12.674-4.847&#10;&#9;&#9;c-1.618,1.865,1.366,7.208,6.834,11.682c5.343,4.599,11.059,6.836,12.677,4.847C785.719,133.827,782.614,128.608,777.268,124.01&#10;&#9;&#9;L777.268,124.01z" transform="matrix(0.010061320848762989, 0.7136469483375549, -0.7136469483375549, 0.010061320848762989, 442.35235595703125, -310.71337890625)"/><path fill-rule="evenodd" clip-rule="evenodd" fill="#F5AB4F" d="M794.915,83.497c4.226-1.119,7.706-0.498,7.954,1.242&#10;&#9;&#9;c0.125,1.864-3.232,4.102-7.458,5.221c-4.226,0.993-7.702,0.373-7.83-1.368C787.461,86.852,790.689,84.49,794.915,83.497&#10;&#9;&#9;L794.915,83.497z" transform="matrix(0.010061320848762989, 0.7136469483375549, -0.7136469483375549, 0.010061320848762989, 442.35235595703125, -310.71337890625)"/><path fill-rule="evenodd" clip-rule="evenodd" fill="#F5AB4F" d="M764.594,84.615c3.477-2.61,6.957-3.354,7.826-1.865&#10;&#9;&#9;c0.746,1.616-1.365,4.971-4.846,7.583c-3.605,2.609-7.082,3.354-7.831,1.738C758.874,90.581,761.113,87.101,764.594,84.615&#10;&#9;&#9;L764.594,84.615z" transform="matrix(0.010061320848762989, 0.7136469483375549, -0.7136469483375549, 0.010061320848762989, 442.35235595703125, -310.71337890625)"/><path fill-rule="evenodd" clip-rule="evenodd" fill="#F5AB4F" d="M777.268,213.984c-13.174,7.084-21.87,16.528-19.387,21.251&#10;&#9;&#9;c2.487,4.723,15.285,2.857,28.458-4.226c13.298-6.96,21.874-16.528,19.386-21.251C803.242,205.161,790.564,207.025,777.268,213.984&#10;&#9;&#9;L777.268,213.984z" transform="matrix(0.010061320848762989, 0.7136469483375549, -0.7136469483375549, 0.010061320848762989, 442.35235595703125, -310.71337890625)"/><path fill-rule="evenodd" clip-rule="evenodd" fill="#F5AB4F" d="M745.08,203.545c-1.987-6.833-5.592-11.682-7.951-10.935&#10;&#9;&#9;c-2.363,0.62-2.735,6.709-0.744,13.546c1.986,6.709,5.591,11.68,7.95,10.935C746.698,216.346,747.07,210.38,745.08,203.545&#10;&#9;&#9;L745.08,203.545z" transform="matrix(0.010061320848762989, 0.7136469483375549, -0.7136469483375549, 0.010061320848762989, 442.35235595703125, -310.71337890625)"/><path fill-rule="evenodd" clip-rule="evenodd" fill="#F5AB4F" d="M723.583,242.691c-1.618-5.592-4.599-9.693-6.713-9.072&#10;&#9;&#9;c-1.987,0.499-2.235,5.594-0.621,11.186c1.742,5.717,4.723,9.816,6.713,9.196C724.949,253.38,725.197,248.409,723.583,242.691&#10;&#9;&#9;L723.583,242.691z" transform="matrix(0.010061320848762989, 0.7136469483375549, -0.7136469483375549, 0.010061320848762989, 442.35235595703125, -310.71337890625)"/><path fill-rule="evenodd" clip-rule="evenodd" fill="#F5AB4F" d="M767.201,279.601c7.459-0.372,13.547,1.492,13.671,4.227&#10;&#9;&#9;c0.124,2.609-5.716,4.97-13.174,5.343c-7.454,0.375-13.546-1.614-13.671-4.224C753.903,282.335,759.743,279.85,767.201,279.601&#10;&#9;&#9;L767.201,279.601z" transform="matrix(0.010061320848762989, 0.7136469483375549, -0.7136469483375549, 0.010061320848762989, 442.35235595703125, -310.71337890625)"/><path fill-rule="evenodd" clip-rule="evenodd" fill="#BE6428" d="M719.357,349.691c-0.124-1.864,0-3.728,0.496-5.592&#10;&#9;&#9;c0.869-4.226,7.334-6.463,15.781-7.58C731.161,341.987,725.445,346.337,719.357,349.691L719.357,349.691z" transform="matrix(0.010061320848762989, 0.7136469483375549, -0.7136469483375549, 0.010061320848762989, 442.35235595703125, -310.71337890625)"/><path fill-rule="evenodd" clip-rule="evenodd" fill="#C97B2C" d="M714.014,309.8c-9.072,13.67-5.596,29.95,3.85,40.639&#10;&#9;&#9;c10.938-5.594,20.632-14.291,25.479-27.217c0.372-1.117,0.744-2.237,1.117-3.356L714.014,309.8z" transform="matrix(0.010061320848762989, 0.7136469483375549, -0.7136469483375549, 0.010061320848762989, 442.35235595703125, -310.71337890625)"/><path fill-rule="evenodd" clip-rule="evenodd" fill="#BE6428" d="M714.014,309.8c-9.072,13.67-5.596,29.95,3.85,40.639&#10;&#9;&#9;c3.604-1.864,6.961-3.978,10.193-6.463c-8.699-7.332-12.553-19.513-4.35-30.943L714.014,309.8z" transform="matrix(0.010061320848762989, 0.7136469483375549, -0.7136469483375549, 0.010061320848762989, 442.35235595703125, -310.71337890625)"/><path fill-rule="evenodd" clip-rule="evenodd" fill="#C97B2C" d="M737.377,334.282c-5.094-5.221-9.195-12.054-11.684-20.257&#10;&#9;&#9;l21.129-4.35c-0.621,4.226-1.742,8.823-3.48,13.546C741.728,327.323,739.736,331.05,737.377,334.282L737.377,334.282z" transform="matrix(0.010061320848762989, 0.7136469483375549, -0.7136469483375549, 0.010061320848762989, 442.35235595703125, -310.71337890625)"/><path fill-rule="evenodd" clip-rule="evenodd" fill="#BE6428" d="M737.377,334.282c-5.094-5.221-9.195-12.054-11.684-20.257&#10;&#9;&#9;l3.605-0.745c2.984,2.11,6.584,4.723,10.935,8.077c0.997,0.747,1.991,1.492,2.859,2.236&#10;&#9;&#9;C741.604,327.571,739.612,331.05,737.377,334.282L737.377,334.282z" transform="matrix(0.010061320848762989, 0.7136469483375549, -0.7136469483375549, 0.010061320848762989, 442.35235595703125, -310.71337890625)"/><path fill-rule="evenodd" clip-rule="evenodd" fill="#C97B2C" d="M708.919,270.156c0,0-17.275,20.009-1.494,39.022&#10;&#9;&#9;c8.079,9.817,22.495,15.284,35.917,14.043c8.078-21.749,2.735-39.146-4.475-51.077&#10;&#9;&#9;C723.459,269.784,708.919,270.156,708.919,270.156L708.919,270.156z" transform="matrix(0.010061320848762989, 0.7136469483375549, -0.7136469483375549, 0.010061320848762989, 442.35235595703125, -310.71337890625)"/><path fill-rule="evenodd" clip-rule="evenodd" fill="#BE6428" d="M708.919,270.156c0,0-17.275,20.009-1.494,39.022&#10;&#9;&#9;c8.079,9.817,22.495,15.284,35.917,14.043c1.862-5.095,2.984-9.941,3.604-14.539c-54.061-0.497-26.596-38.402-26.596-38.402&#10;&#9;&#9;C713.518,270.032,708.919,270.156,708.919,270.156L708.919,270.156z" transform="matrix(0.010061320848762989, 0.7136469483375549, -0.7136469483375549, 0.010061320848762989, 442.35235595703125, -310.71337890625)"/><path fill-rule="evenodd" clip-rule="evenodd" fill="#C97B2C" d="M720.351,213.488c0,0-26.968,13.795-22.122,39.768&#10;&#9;&#9;c4.973,25.973,29.332,34.797,29.332,34.797l18.641,2.361c-4.971-23.115-23.611-36.289-23.611-36.289&#10;&#9;&#9;c6.461-10.438,10.313-20.007,12.424-28.831C726.563,218.459,720.351,213.488,720.351,213.488L720.351,213.488z" transform="matrix(0.010061320848762989, 0.7136469483375549, -0.7136469483375549, 0.010061320848762989, 442.35235595703125, -310.71337890625)"/><path fill-rule="evenodd" clip-rule="evenodd" fill="#C97B2C" d="M722.461,168.5c-5.467,5.097-10.438,12.178-12.549,21.997&#10;&#9;&#9;c-5.345,25.229,15.285,34.176,17.772,54.432C746.698,206.777,732.034,180.306,722.461,168.5L722.461,168.5z" transform="matrix(0.010061320848762989, 0.7136469483375549, -0.7136469483375549, 0.010061320848762989, 442.35235595703125, -310.71337890625)"/><path fill-rule="evenodd" clip-rule="evenodd" fill="#BE6428" d="M722.461,168.5c-5.467,5.097-10.438,12.178-12.549,21.997&#10;&#9;&#9;c-5.345,25.229,15.285,34.176,17.772,54.432c2.235-4.475,4.102-8.824,5.468-13.048c-2.736-8.575-5.468-16.902-6.59-23.738&#10;&#9;&#9;c-1.613-10.313,1.494-17.894,5.596-23.363C729.299,177.82,725.569,172.353,722.461,168.5L722.461,168.5z" transform="matrix(0.010061320848762989, 0.7136469483375549, -0.7136469483375549, 0.010061320848762989, 442.35235595703125, -310.71337890625)"/><path fill-rule="evenodd" clip-rule="evenodd" fill="#C97B2C" d="M743.342,281.093c-4.847,2.734-10.066,5.22-15.781,6.96&#10;&#9;&#9;c0,0,5.467,12.923,19.262,21.374C748.313,298.49,746.574,288.922,743.342,281.093L743.342,281.093z" transform="matrix(0.010061320848762989, 0.7136469483375549, -0.7136469483375549, 0.010061320848762989, 442.35235595703125, -310.71337890625)"/><path fill-rule="evenodd" clip-rule="evenodd" fill="#BE6428" d="M745.953,289.294c-4.102-1.365-8.576-2.981-13.298-4.598&#10;&#9;&#9;c-1.743-0.621-4.847-0.497-4.599,3.48c2.98,4.847,9.072,12.799,19.138,18.145C747.691,300.106,747.194,294.515,745.953,289.294&#10;&#9;&#9;L745.953,289.294z" transform="matrix(0.010061320848762989, 0.7136469483375549, -0.7136469483375549, 0.010061320848762989, 442.35235595703125, -310.71337890625)"/><path fill-rule="evenodd" clip-rule="evenodd" fill="#BE6428" d="M736.504,268.664c-20.007-1.241-40.883-17.646-17.892-44.738&#10;&#9;&#9;c-1.37-2.236-2.86-4.35-4.102-6.711c-6.093,4.599-15.038,13.422-16.654,25.976c-0.373,3.105-0.249,6.46,0.372,10.065&#10;&#9;&#9;c1.616,7.952,4.973,14.291,8.824,19.386c8.824,11.186,20.508,15.411,20.508,15.411c5.715-1.74,10.935-4.226,15.781-6.96&#10;&#9;&#9;C741.479,276.371,738.992,272.27,736.504,268.664L736.504,268.664z" transform="matrix(0.010061320848762989, 0.7136469483375549, -0.7136469483375549, 0.010061320848762989, 442.35235595703125, -310.71337890625)"/><path fill-rule="evenodd" clip-rule="evenodd" fill="#D1B07E" d="M739.984,330.306c-2.607-2.734-4.971-5.843-7.081-9.321&#10;&#9;&#9;c-1.37-2.361,1.118,2.734,0,0l-3.232-0.124c-2.731-0.124-2.234-1.864-1.241,0.497c2.482,4.971,5.467,9.32,8.947,12.925&#10;&#9;&#9;C738.246,333.039,739.115,331.673,739.984,330.306L739.984,330.306z" transform="matrix(0.010061320848762989, 0.7136469483375549, -0.7136469483375549, 0.010061320848762989, 442.35235595703125, -310.71337890625)"/><path fill-rule="evenodd" clip-rule="evenodd" fill="#D1B07E" d="M744.831,318.499c-1.117,0.124-2.234,0.373-3.476,0.373&#10;&#9;&#9;c-4.852,0.372-9.822-0.249-14.545-1.49c-4.971-1.368-9.568-3.604-13.546-6.463c-2.483-1.864-4.598-3.853-6.585-6.09&#10;&#9;&#9;c-3.105-3.854-4.971-7.704-5.839-11.434c0.373,4.971,2.113,10.44,6.584,15.783c1.242,1.616,2.736,3.106,4.351,4.474&#10;&#9;&#9;c4.846,3.978,10.686,6.96,17.026,8.452c4.723,1.117,9.693,1.614,14.54,1.117C743.838,321.605,744.459,319.989,744.831,318.499&#10;&#9;&#9;L744.831,318.499z" transform="matrix(0.010061320848762989, 0.7136469483375549, -0.7136469483375549, 0.010061320848762989, 442.35235595703125, -310.71337890625)"/><path fill-rule="evenodd" clip-rule="evenodd" fill="#D1B07E" d="M720.475,349.07c-6.585-6.214-11.183-15.036-11.68-24.356&#10;&#9;&#9;c-0.749,9.444,2.855,18.765,9.068,25.725C718.736,350.065,719.605,349.567,720.475,349.07L720.475,349.07z" transform="matrix(0.010061320848762989, 0.7136469483375549, -0.7136469483375549, 0.010061320848762989, 442.35235595703125, -310.71337890625)"/><path fill-rule="evenodd" clip-rule="evenodd" fill="#D1B07E" d="M747.194,306.321c-10.065-5.346-16.157-13.298-19.138-18.145&#10;&#9;&#9;l-0.496-0.124c0,0,5.467,12.923,19.262,21.374C746.946,308.434,747.07,307.314,747.194,306.321L747.194,306.321z" transform="matrix(0.010061320848762989, 0.7136469483375549, -0.7136469483375549, 0.010061320848762989, 442.35235595703125, -310.71337890625)"/><path fill-rule="evenodd" clip-rule="evenodd" fill="#D1B07E" d="M727.809,284.199c0,0-10.566-3.852-19.142-13.795&#10;&#9;&#9;c-0.497-0.62-0.869-1.117-1.366-1.74c-3.975-4.971-7.208-11.307-8.821-19.262c-0.375-2.113-0.499-4.226-0.623-6.212&#10;&#9;&#9;c-0.373,3.105-0.249,6.46,0.372,10.065c1.616,7.952,4.973,14.291,8.824,19.386c8.824,11.186,20.508,15.411,20.508,15.411&#10;&#9;&#9;c5.715-1.74,10.935-4.226,15.781-6.96c-0.497-1.119-0.869-2.112-1.366-2.983C737.626,280.473,732.903,282.583,727.809,284.199&#10;&#9;&#9;L727.809,284.199z" transform="matrix(0.010061320848762989, 0.7136469483375549, -0.7136469483375549, 0.010061320848762989, 442.35235595703125, -310.71337890625)"/><path fill-rule="evenodd" clip-rule="evenodd" fill="#D1B07E" d="M712.645,192.237c1.99-9.32,6.589-16.281,11.808-21.252&#10;&#9;&#9;c-0.745-0.869-1.366-1.738-1.991-2.485c-5.467,5.097-10.438,12.178-12.549,21.997c-2.363,11.434,0.497,19.511,4.599,26.718&#10;&#9;&#9;c4.971,8.824,11.804,16.528,13.174,27.714c0.621-1.118,1.117-2.361,1.738-3.479c-2.86-9.445-9.32-16.652-13.546-25.229&#10;&#9;&#9;C712.52,209.635,710.533,202.303,712.645,192.237L712.645,192.237z" transform="matrix(0.010061320848762989, 0.7136469483375549, -0.7136469483375549, 0.010061320848762989, 442.35235595703125, -310.71337890625)"/><path fill-rule="evenodd" clip-rule="evenodd" fill="#CB8A40" d="M735.387,194.972c-0.621,2.485-0.373,6.711,0.998,11.185&#10;&#9;&#9;c0.119,0.621,0.372,1.117,0.62,1.738C736.881,203.296,736.256,198.946,735.387,194.972L735.387,194.972z" transform="matrix(0.010061320848762989, 0.7136469483375549, -0.7136469483375549, 0.010061320848762989, 442.35235595703125, -310.71337890625)"/><path fill-rule="evenodd" clip-rule="evenodd" fill="#CB8A40" d="M723.583,242.691c-1.618-5.592-4.599-9.693-6.713-9.072&#10;&#9;&#9;c-1.987,0.499-2.235,5.594-0.621,11.186c1.614,5.467,4.35,9.444,6.341,9.32c0.745-1.118,1.365-2.237,1.986-3.354&#10;&#9;&#9;C724.824,248.657,724.452,245.8,723.583,242.691L723.583,242.691z" transform="matrix(0.010061320848762989, 0.7136469483375549, -0.7136469483375549, 0.010061320848762989, 442.35235595703125, -310.71337890625)"/><path fill-rule="evenodd" clip-rule="evenodd" fill="#E37325" d="M694.999,332.046c7.829,65.243-60.894,51.573-60.397,20.255&#10;&#9;&#9;C634.726,338.633,694.999,332.046,694.999,332.046L694.999,332.046z" transform="matrix(0.010061320848762989, 0.7136469483375549, -0.7136469483375549, 0.010061320848762989, 442.35235595703125, -310.71337890625)"/><path fill-rule="evenodd" clip-rule="evenodd" fill="#F2952D" d="M691.644,334.531c0,0-1.989,48.715-40.763,31.315&#10;&#9;&#9;C612.109,348.449,691.644,334.531,691.644,334.531L691.644,334.531z" transform="matrix(0.010061320848762989, 0.7136469483375549, -0.7136469483375549, 0.010061320848762989, 442.35235595703125, -310.71337890625)"/><path fill-rule="evenodd" clip-rule="evenodd" fill="#F2952D" d="M621.678,319.989c-15.162,38.774,51.449,76.804,67.854,7.706&#10;&#9;&#9;L621.678,319.989z" transform="matrix(0.010061320848762989, 0.7136469483375549, -0.7136469483375549, 0.010061320848762989, 442.35235595703125, -310.71337890625)"/><path fill-rule="evenodd" clip-rule="evenodd" fill="#E37325" d="M621.678,319.989c-14.043,35.916,42.005,71.086,63.379,21.253&#10;&#9;&#9;l-7.705,1.489c-16.902,24.483-57.291,5.346-45.485-21.623L621.678,319.989z" transform="matrix(0.010061320848762989, 0.7136469483375549, -0.7136469483375549, 0.010061320848762989, 442.35235595703125, -310.71337890625)"/><path fill-rule="evenodd" clip-rule="evenodd" fill="#F2952D" d="M699.969,292.774c18.022,59.278-42.997,70.339-65.988,28.955&#10;&#9;&#9;L699.969,292.774z" transform="matrix(0.010061320848762989, 0.7136469483375549, -0.7136469483375549, 0.010061320848762989, 442.35235595703125, -310.71337890625)"/><path fill-rule="evenodd" clip-rule="evenodd" fill="#E37325" d="M700.468,294.764c16.278,57.537-43.745,67.978-66.487,26.966&#10;&#9;&#9;l3.479-1.49c3.356,1.49,7.458,3.354,12.305,5.716c52.318,25.229,44.738-21.126,44.738-21.126&#10;&#9;&#9;C695.371,299.113,697.608,296.129,700.468,294.764L700.468,294.764z" transform="matrix(0.010061320848762989, 0.7136469483375549, -0.7136469483375549, 0.010061320848762989, 442.35235595703125, -310.71337890625)"/><path fill-rule="evenodd" clip-rule="evenodd" fill="#F2952D" d="M608.504,282.335c0,0-12.677,23.115,6.711,38.525&#10;&#9;&#9;c19.262,15.411,58.16,9.817,61.763-22.866C680.707,265.186,608.504,282.335,608.504,282.335L608.504,282.335z" transform="matrix(0.010061320848762989, 0.7136469483375549, -0.7136469483375549, 0.010061320848762989, 442.35235595703125, -310.71337890625)"/><path fill-rule="evenodd" clip-rule="evenodd" fill="#E37325" d="M608.504,282.335c0,0-12.677,23.115,6.711,38.525&#10;&#9;&#9;c17.273,13.795,50.454,10.688,59.65-13.794c-4.348,0.995-9.693,2.236-16.402,3.853c-58.907,14.54-38.774-30.821-38.774-30.821&#10;&#9;&#9;C612.979,281.217,608.504,282.335,608.504,282.335L608.504,282.335z" transform="matrix(0.010061320848762989, 0.7136469483375549, -0.7136469483375549, 0.010061320848762989, 442.35235595703125, -310.71337890625)"/><path fill-rule="evenodd" clip-rule="evenodd" fill="#F2952D" d="M607.883,224.549c0,0-23.488,19.138-13.298,43.494&#10;&#9;&#9;c10.314,24.359,35.915,27.962,35.915,27.962l37.284-3.106c0,0,6.957-32.808,3.727-35.293&#10;&#9;&#9;C668.405,255.12,607.883,224.549,607.883,224.549L607.883,224.549z" transform="matrix(0.010061320848762989, 0.7136469483375549, -0.7136469483375549, 0.010061320848762989, 442.35235595703125, -310.71337890625)"/><path fill-rule="evenodd" clip-rule="evenodd" fill="#F2952D" d="M649.516,82.626l-6.835,0.124c0,0-22.619-5.964-28.46,15.907&#10;&#9;&#9;c-5.964,21.874,43.372,38.402,43.372,38.402S639.572,114.813,649.516,82.626L649.516,82.626z" transform="matrix(0.010061320848762989, 0.7136469483375549, -0.7136469483375549, 0.010061320848762989, 442.35235595703125, -310.71337890625)"/><path fill-rule="evenodd" clip-rule="evenodd" fill="#F2952D" d="M686.922,93.563c3.23-22.866-69.718-27.961-40.763,16.528&#10;&#9;&#9;C665.795,140.166,686.922,93.563,686.922,93.563L686.922,93.563z" transform="matrix(0.010061320848762989, 0.7136469483375549, -0.7136469483375549, 0.010061320848762989, 442.35235595703125, -310.71337890625)"/><path fill-rule="evenodd" clip-rule="evenodd" fill="#E37325" d="M686.922,93.563c1.365-10.065-12.057-16.652-24.979-17.148&#10;&#9;&#9;l0.496,1.489c0,0,12.055,1.865-2.112,17.896c-14.167,15.907,21.997,2.361,21.997,2.361s1.862-1.492,3.978-3.354&#10;&#9;&#9;C686.673,93.936,686.922,93.563,686.922,93.563L686.922,93.563z" transform="matrix(0.010061320848762989, 0.7136469483375549, -0.7136469483375549, 0.010061320848762989, 442.35235595703125, -310.71337890625)"/><path fill-rule="evenodd" clip-rule="evenodd" fill="#F2952D" d="M698.104,117.175l0.124-13.296&#10;&#9;&#9;c0.375-35.916-88.607,1.241-49.212,44.862C663.683,167.879,698.104,117.175,698.104,117.175L698.104,117.175z" transform="matrix(0.010061320848762989, 0.7136469483375549, -0.7136469483375549, 0.010061320848762989, 442.35235595703125, -310.71337890625)"/><path fill-rule="evenodd" clip-rule="evenodd" fill="#E37325" d="M698.104,117.175l0.124-13.296&#10;&#9;&#9;c0.126-11.436-8.821-15.411-19.758-14.169l-11.309,6.09c32.063-11.558,26.596,25.849-15.535,34.673&#10;&#9;&#9;c-7.456,1.616-10.189,3.727-10.562,5.966c0.621,1.738,1.492,3.354,2.609,5.095c3.605,3.479,9.693,6.337,9.693,6.337&#10;&#9;&#9;s10.564-2.361,23.115-5.22C688.039,132.089,698.104,117.175,698.104,117.175L698.104,117.175z" transform="matrix(0.010061320848762989, 0.7136469483375549, -0.7136469483375549, 0.010061320848762989, 442.35235595703125, -310.71337890625)"/><path fill-rule="evenodd" clip-rule="evenodd" fill="#F2952D" d="M616.956,165.518c0,0-24.111,12.055-23.986,38.774&#10;&#9;&#9;c0,26.594,23.488,30.322,29.33,51.449l16.528-6.96l21.747-31.566C660.574,217.215,636.714,174.342,616.956,165.518L616.956,165.518&#10;&#9;&#9;z" transform="matrix(0.010061320848762989, 0.7136469483375549, -0.7136469483375549, 0.010061320848762989, 442.35235595703125, -310.71337890625)"/><path fill-rule="evenodd" clip-rule="evenodd" fill="#E37325" d="M616.956,165.518c0,0-24.111,12.055-23.986,38.774&#10;&#9;&#9;c0,26.594,23.488,30.322,29.33,51.449l8.327-3.481c-5.718-12.426-14.045-24.48-17.772-34.298&#10;&#9;&#9;c-8.824-23.115,11.558-37.284,11.558-37.284l2.982-3.23c0.621-1.241,0.993-2.485,1.244-3.603&#10;&#9;&#9;C624.784,170.116,620.807,167.134,616.956,165.518L616.956,165.518z" transform="matrix(0.010061320848762989, 0.7136469483375549, -0.7136469483375549, 0.010061320848762989, 442.35235595703125, -310.71337890625)"/><path fill-rule="evenodd" clip-rule="evenodd" fill="#F2952D" d="M628.886,184.407c0,0-55.675-42.253-14.666-85.75&#10;&#9;&#9;c11.682,27.59,36.91,17.4,50.208,40.017L628.886,184.407z" transform="matrix(0.010061320848762989, 0.7136469483375549, -0.7136469483375549, 0.010061320848762989, 442.35235595703125, -310.71337890625)"/><path fill-rule="evenodd" clip-rule="evenodd" fill="#F2952D" d="M666.789,257.233c0,0-13.174,25.849-36.289,38.771&#10;&#9;&#9;c0,0,16.528,23.612,47.226,19.014c30.692-4.599,47.224-47.596,30.568-70.587C691.768,221.565,666.789,257.233,666.789,257.233&#10;&#9;&#9;L666.789,257.233z" transform="matrix(0.010061320848762989, 0.7136469483375549, -0.7136469483375549, 0.010061320848762989, 442.35235595703125, -310.71337890625)"/><path fill-rule="evenodd" clip-rule="evenodd" fill="#F2952D" d="M648.147,222.685c0,0-27.589-18.517-23.363-49.587&#10;&#9;&#9;c4.35-31.191,64.871-45.731,73.444-69.219c0,0,40.764,33.057,15.036,80.652C687.542,232.005,648.147,222.685,648.147,222.685&#10;&#9;&#9;L648.147,222.685z" transform="matrix(0.010061320848762989, 0.7136469483375549, -0.7136469483375549, 0.010061320848762989, 442.35235595703125, -310.71337890625)"/><path fill-rule="evenodd" clip-rule="evenodd" fill="#E37325" d="M648.147,222.685c0,0-7.332-4.849-13.794-13.795&#10;&#9;&#9;c10.192-14.417,25.849-22.742,39.395-30.821c27.713-16.404,41.756-40.885,16.404-57.165l-3.106-0.871&#10;&#9;&#9;c0.248-0.993,0.497-1.986,0.745-2.981c4.971-4.102,8.699-8.449,10.438-13.172c0,0,40.764,33.057,15.036,80.652&#10;&#9;&#9;C687.542,232.005,648.147,222.685,648.147,222.685L648.147,222.685z" transform="matrix(0.010061320848762989, 0.7136469483375549, -0.7136469483375549, 0.010061320848762989, 442.35235595703125, -310.71337890625)"/><path fill-rule="evenodd" clip-rule="evenodd" fill="#E37325" d="M694.253,264.066c-0.996,8.451-4.971,20.381-17.524,27.465&#10;&#9;&#9;c-8.697,4.847-23.239,2.361-41.88,0.124c-1.864-0.248-4.847,0.496-3.976,4.226c4.599,4.847,13.919,12.677,27.589,15.038&#10;&#9;&#9;c4.472,0.869,9.194,1.117,14.416,0.497l1.986-0.248c10.564-1.616,19.388-7.705,25.851-15.908&#10;&#9;&#9;c9.196-11.93,13.422-28.21,10.314-41.88C706.308,257.854,700.592,261.457,694.253,264.066L694.253,264.066z" transform="matrix(0.010061320848762989, 0.7136469483375549, -0.7136469483375549, 0.010061320848762989, 442.35235595703125, -310.71337890625)"/><path fill-rule="evenodd" clip-rule="evenodd" fill="#F2952D" d="M713.265,184.531c45.733,87.738-67.23,101.284-90.966,71.21&#10;&#9;&#9;C622.299,255.741,639.323,193.23,713.265,184.531L713.265,184.531z" transform="matrix(0.010061320848762989, 0.7136469483375549, -0.7136469483375549, 0.010061320848762989, 442.35235595703125, -310.71337890625)"/><path fill-rule="evenodd" clip-rule="evenodd" fill="#E37325" d="M645.29,108.477c-7.707-12.304-7.083-20.756-2.609-25.727&#10;&#9;&#9;c0,0-1.616-0.496-4.226-0.745c0,0-7.332,6.215-2.733,20.754c2.485,7.705,1.117,12.055-0.871,14.416&#10;&#9;&#9;c-0.373,0.496-0.745,0.871-1.242,1.243c1.989,0.869,3.851,1.614,5.84,2.361C640.443,116.43,642.43,112.204,645.29,108.477&#10;&#9;&#9;L645.29,108.477z" transform="matrix(0.010061320848762989, 0.7136469483375549, -0.7136469483375549, 0.010061320848762989, 442.35235595703125, -310.71337890625)"/><path fill-rule="evenodd" clip-rule="evenodd" fill="#E37325" d="M634.726,154.581c-29.578-20.382-23.239-45.855-21.002-52.194&#10;&#9;&#9;c0.373-0.995,0.621-1.616,0.621-1.492l-0.621,0.621c-20.629,25.104-10.19,49.463,1.492,64.995c3.106,4.226,6.462,7.707,9.196,10.44&#10;&#9;&#9;c0.124-1.244,0.249-2.609,0.373-3.854c0.124-0.869,0.248-1.616,0.372-2.237C626.524,164.896,630.003,159.554,634.726,154.581&#10;&#9;&#9;L634.726,154.581z" transform="matrix(0.010061320848762989, 0.7136469483375549, -0.7136469483375549, 0.010061320848762989, 442.35235595703125, -310.71337890625)"/><path fill-rule="evenodd" clip-rule="evenodd" fill="#E37325" d="M703.822,198.822c0.993,10.564,0.248,25.976-9.32,38.029&#10;&#9;&#9;c-4.971,6.212-12.427,11.558-23.239,14.788c-2.237,0.62-4.599,1.243-7.208,1.74c-9.196,1.74-20.505,2.112-34.3,0.745&#10;&#9;&#9;c5.966,7.332,17.273,12.181,30.447,13.794c3.729,0.497,7.707,0.621,11.682,0.621c2.734-0.124,5.345-0.248,7.955-0.621&#10;&#9;&#9;c12.427-2.981,23.984-8.947,31.564-18.269c11.059-13.422,14.043-33.801,0.124-62.135l-1.241-2.612&#10;&#9;&#9;c-2.363,0.249-4.723,0.623-6.835,1.12c-0.623,0.124-1.244,0.248-1.741,0.496C701.834,187.265,703.201,192.113,703.822,198.822&#10;&#9;&#9;L703.822,198.822z" transform="matrix(0.010061320848762989, 0.7136469483375549, -0.7136469483375549, 0.010061320848762989, 442.35235595703125, -310.71337890625)"/><path fill-rule="evenodd" clip-rule="evenodd" fill="#E37325" d="M650.26,269.287c-18.144,13.919-63.505,5.964-41.88-34.176&#10;&#9;&#9;c-1.864-1.864-3.604-3.729-5.467-5.716c-4.973,5.84-11.932,16.277-10.813,28.831c0.373,3.105,1.118,6.463,2.485,9.816&#10;&#9;&#9;c3.23,7.456,7.705,12.926,12.675,17.027c10.937,9.196,23.239,10.935,23.239,10.935c8.699-4.847,15.907-11.558,21.625-17.896&#10;&#9;&#9;c2.361-2.734,4.598-5.468,6.463-7.953C655.728,270.032,652.87,269.659,650.26,269.287L650.26,269.287z" transform="matrix(0.010061320848762989, 0.7136469483375549, -0.7136469483375549, 0.010061320848762989, 442.35235595703125, -310.71337890625)"/><path fill-rule="evenodd" clip-rule="evenodd" fill="#FFE6A9" d="M693.258,336.768c0.125,1.738-0.124-1.119,0,0.497&#10;&#9;&#9;c0.623,45.485-41.88,43.869-56.295,25.104c11.806,22.867,62.634,27.091,58.409-26.596c-0.124-1.241,0,0.747-0.124-0.497&#10;&#9;&#9;C695.247,335.275,694.502,336.644,693.258,336.768L693.258,336.768z" transform="matrix(0.010061320848762989, 0.7136469483375549, -0.7136469483375549, 0.010061320848762989, 442.35235595703125, -310.71337890625)"/><path fill-rule="evenodd" clip-rule="evenodd" fill="#FFE6A9" d="M701.958,323.594c-9.321,22.991-40.389,24.483-59.402,3.481&#10;&#9;&#9;c-1.864-2.113,1.614,2.485,0,0l-3.232,0.496c-2.609,0.497-2.609-1.243-0.993,0.745C658.089,354.289,694.75,352.177,701.958,323.594&#10;&#9;&#9;L701.958,323.594z" transform="matrix(0.010061320848762989, 0.7136469483375549, -0.7136469483375549, 0.010061320848762989, 442.35235595703125, -310.71337890625)"/><path fill-rule="evenodd" clip-rule="evenodd" fill="#FFE6A9" d="M630.251,182.667c-0.125-2.237,0-4.599,0.249-7.084&#10;&#9;&#9;c0-0.496,0.126-0.869,0.126-1.365c1.366-10.068,8.573-18.394,18.018-25.85c4.598-3.604,9.819-7.083,15.039-10.315&#10;&#9;&#9;c12.923-8.201,26.469-15.657,34.422-24.108c1.864-1.864,3.356-3.854,4.599-5.842c-2.61-2.733-4.475-4.224-4.475-4.224&#10;&#9;&#9;c-4.224,11.68-21.25,21.124-37.902,31.44c-0.869,0.62-1.863,1.119-2.734,1.74c-3.977,2.485-7.952,5.095-11.682,7.828&#10;&#9;&#9;c-10.189,7.58-18.393,15.783-20.754,25.973c-0.124,0.621-0.248,1.368-0.372,2.237c-0.373,2.609-0.497,5.097-0.373,7.58&#10;&#9;&#9;c0.373,19.14,12.551,32.436,19.262,38.526c0.745-0.869,1.492-1.616,2.237-2.361C639.323,209.883,630.874,198.201,630.251,182.667&#10;&#9;&#9;L630.251,182.667z" transform="matrix(0.010061320848762989, 0.7136469483375549, -0.7136469483375549, 0.010061320848762989, 442.35235595703125, -310.71337890625)"/><path fill-rule="evenodd" clip-rule="evenodd" fill="#FFE6A9" d="M630.375,252.387c0.747-2.487,2.61-7.334,5.842-13.422&#10;&#9;&#9;c2.609-5.096,6.212-10.938,11.061-16.903c2.858-3.479,6.088-7.208,9.817-10.687c11.061-10.439,25.973-20.009,46.354-25.352&#10;&#9;&#9;c-20.754,4.102-36.413,12.551-48.343,22.243c-3.357,2.736-6.463,5.594-9.197,8.576c-0.745,0.745-1.492,1.492-2.237,2.361&#10;&#9;&#9;c-5.343,5.842-9.445,11.806-12.551,17.148c-6.587,11.062-8.824,19.389-8.824,19.389c6.711,8.573,20.754,13.67,36.289,14.415&#10;&#9;&#9;c4.348,0.124,8.697,0.124,13.171-0.372c4.722-0.497,9.321-1.368,13.794-2.609c-4.474,0.744-9.072,1.241-13.67,1.365&#10;&#9;&#9;c-3.975,0-7.953-0.124-11.682-0.621c-13.174-1.613-24.481-6.462-30.447-13.794C629.755,254.125,630.003,253.504,630.375,252.387&#10;&#9;&#9;L630.375,252.387z" transform="matrix(0.010061320848762989, 0.7136469483375549, -0.7136469483375549, 0.010061320848762989, 442.35235595703125, -310.71337890625)"/><path fill-rule="evenodd" clip-rule="evenodd" fill="#FFE6A9" d="M664.924,315.391c-4.102,3.729-9.196,6.339-14.539,7.831&#10;&#9;&#9;c-4.723,1.366-9.693,1.864-14.54,1.492c-5.095-0.251-10.067-1.492-14.666-3.48c-2.734-1.244-5.343-2.734-7.58-4.599&#10;&#9;&#9;c-3.853-2.982-6.463-6.463-8.201-9.941c1.366,4.847,4.348,9.817,9.817,14.167c1.616,1.244,3.354,2.361,5.095,3.354&#10;&#9;&#9;c5.591,2.984,11.93,4.599,18.517,4.847c7.208,0.124,14.539-1.366,20.878-4.723c3.978-2.234,7.58-5.095,10.438-8.697&#10;&#9;&#9;C668.28,315.642,666.54,315.518,664.924,315.391L664.924,315.391z" transform="matrix(0.010061320848762989, 0.7136469483375549, -0.7136469483375549, 0.010061320848762989, 442.35235595703125, -310.71337890625)"/><path fill-rule="evenodd" clip-rule="evenodd" fill="#FFE6A9" d="M679.714,345.716c-18.892,29.203-53.313,14.291-60.024-9.943&#10;&#9;&#9;c3.851,27.962,44.862,46.854,63.875,8.824C682.323,345.093,681.08,345.468,679.714,345.716L679.714,345.716z" transform="matrix(0.010061320848762989, 0.7136469483375549, -0.7136469483375549, 0.010061320848762989, 442.35235595703125, -310.71337890625)"/><path fill-rule="evenodd" clip-rule="evenodd" fill="#FFE6A9" d="M674.865,311.168c-0.621,0-1.366,0.124-1.986,0.248&#10;&#9;&#9;c-5.221,0.62-9.943,0.372-14.416-0.497c-13.67-2.361-22.991-10.191-27.589-15.038l-0.374,0.124c0,0,8.203,11.558,23.489,16.903&#10;&#9;&#9;c3.354,1.241,6.957,2.11,10.935,2.482c1.616,0.127,3.356,0.251,5.219,0.251c2.363,0,4.973-0.251,7.583-0.623&#10;&#9;&#9;c9.692-1.49,18.02-6.709,24.356-14.043c11.436-13.42,16.158-33.553,10.313-48.964c-0.496,0.375-0.869,0.871-1.365,1.368&#10;&#9;&#9;c3.108,13.67-1.118,29.95-10.314,41.88C694.253,303.463,685.43,309.552,674.865,311.168L674.865,311.168z" transform="matrix(0.010061320848762989, 0.7136469483375549, -0.7136469483375549, 0.010061320848762989, 442.35235595703125, -310.71337890625)"/><path fill-rule="evenodd" clip-rule="evenodd" fill="#FFE6A9" d="M630.003,292.151c0,0-11.185-1.613-21.747-9.568&#10;&#9;&#9;c-0.497-0.372-1.12-0.869-1.616-1.366c-4.847-3.977-9.444-9.568-12.551-17.026c-0.871-1.986-1.492-3.976-1.989-5.964&#10;&#9;&#9;c0.373,3.105,1.118,6.463,2.485,9.816c3.23,7.456,7.705,12.926,12.675,17.027c10.937,9.196,23.239,10.935,23.239,10.935&#10;&#9;&#9;c8.699-4.847,15.907-11.558,21.625-17.896c2.361-2.734,4.598-5.468,6.463-7.953c-1.12-0.124-2.239-0.124-3.357-0.248&#10;&#9;&#9;c-1.118,1.367-2.361,2.857-3.729,4.35c-0.993,1.241-2.235,2.361-3.354,3.603C643.053,283.082,636.962,288.177,630.003,292.151&#10;&#9;&#9;L630.003,292.151z" transform="matrix(0.010061320848762989, 0.7136469483375549, -0.7136469483375549, 0.010061320848762989, 442.35235595703125, -310.71337890625)"/><path fill-rule="evenodd" clip-rule="evenodd" fill="#FFE6A9" d="M595.951,205.409c0-18.393,11.436-29.826,18.517-35.169&#10;&#9;&#9;c-0.496-0.745-1.117-1.492-1.614-2.113c-6.959,4.723-20.009,16.528-19.885,36.165c0,11.558,4.474,18.89,9.943,25.104&#10;&#9;&#9;c7.208,8.077,16.03,14.54,19.386,26.346c0,0,0.372-1.368,1.241-3.729c-4.474-9.941-13.047-15.783-19.51-23.86&#10;&#9;&#9;C599.432,222.434,596.075,215.601,595.951,205.409L595.951,205.409z" transform="matrix(0.010061320848762989, 0.7136469483375549, -0.7136469483375549, 0.010061320848762989, 442.35235595703125, -310.71337890625)"/><path fill-rule="evenodd" clip-rule="evenodd" fill="#FFE6A9" d="M615.215,166.511c-11.682-15.532-22.122-39.892-1.492-64.995&#10;&#9;&#9;c0.373-0.497,0.745-0.869,1.12-1.366c-0.25-0.496-0.375-0.993-0.623-1.492c-25.226,26.845-13.919,53.19-1.366,69.346&#10;&#9;&#9;c4.102,5.47,8.449,9.693,11.558,12.551c-0.125-1.117,0-2.359,0-3.603C621.678,174.218,618.321,170.736,615.215,166.511&#10;&#9;&#9;L615.215,166.511z" transform="matrix(0.010061320848762989, 0.7136469483375549, -0.7136469483375549, 0.010061320848762989, 442.35235595703125, -310.71337890625)"/><path fill-rule="evenodd" clip-rule="evenodd" fill="#FFE6A9" d="M642.805,122.146c0.869-3.603,2.361-7.084,4.598-10.189&#10;&#9;&#9;c0-0.125,0-0.125,0-0.125c8.822-12.925,26.842-21.25,39.644-20.505c2.361,0.248,4.598,0.62,6.587,1.492&#10;&#9;&#9;c-1.865-1.492-4.226-2.485-6.835-2.984c-11.808-2.237-29.826,4.849-40.142,16.778c-0.497,0.621-0.993,1.242-1.366,1.864&#10;&#9;&#9;c-2.86,3.728-4.846,7.953-5.842,12.303C640.567,121.276,641.685,121.648,642.805,122.146L642.805,122.146z" transform="matrix(0.010061320848762989, 0.7136469483375549, -0.7136469483375549, 0.010061320848762989, 442.35235595703125, -310.71337890625)"/><path fill-rule="evenodd" clip-rule="evenodd" fill="#FFE6A9" d="M646.655,106.612c0.249-0.126,0.373-0.374,0.623-0.499&#10;&#9;&#9;C647.028,106.238,646.904,106.486,646.655,106.612L646.655,106.612z M648.396,82.626c6.215-5.219,17.648-5.964,27.093-3.479&#10;&#9;&#9;c-10.688-4.35-26.097-3.978-32.808,3.603c-4.474,4.971-5.097,13.423,2.609,25.727c-0.621,0.745,1.49-1.74,1.989-2.363&#10;&#9;&#9;C643.425,98.533,640.939,88.841,648.396,82.626L648.396,82.626z" transform="matrix(0.010061320848762989, 0.7136469483375549, -0.7136469483375549, 0.010061320848762989, 442.35235595703125, -310.71337890625)"/><path fill-rule="evenodd" clip-rule="evenodd" fill="#FFE6A9" d="M711.526,187.516c13.919,28.334,10.935,48.713-0.124,62.135&#10;&#9;&#9;c-7.58,9.321-19.138,15.287-31.564,18.269c1.989-0.124,3.852-0.372,5.716-0.744c9.693-2.734,18.642-7.332,25.477-13.795&#10;&#9;&#9;c0.496-0.497,0.869-0.993,1.365-1.368c13.174-13.794,17.399-35.79,0.869-67.48c-0.993,0-1.986,0.248-2.979,0.372&#10;&#9;&#9;C710.657,185.774,711.154,186.644,711.526,187.516L711.526,187.516z" transform="matrix(0.010061320848762989, 0.7136469483375549, -0.7136469483375549, 0.010061320848762989, 442.35235595703125, -310.71337890625)"/><path fill-rule="evenodd" clip-rule="evenodd" fill="#FFE6A9" d="M700.468,111.335c10.189,11.31,28.086,38.399,9.817,73.568&#10;&#9;&#9;c0.993-0.124,1.986-0.372,2.979-0.372c20.384-37.654-0.869-66.113-10.562-76.429C702.082,109.222,701.337,110.215,700.468,111.335&#10;&#9;&#9;L700.468,111.335z" transform="matrix(0.010061320848762989, 0.7136469483375549, -0.7136469483375549, 0.010061320848762989, 442.35235595703125, -310.71337890625)"/><path fill-rule="evenodd" clip-rule="evenodd" fill="#FFE6A9" d="M639.82,119.287c-8.449-3.479-16.652-7.828-22.244-19.634&#10;&#9;&#9;l-0.621-1.492c2.734-10.065,8.946-14.291,14.912-15.907c-6.711,0.993-14.54,4.847-17.648,16.403&#10;&#9;&#9;c0.248,0.499,0.373,0.996,0.623,1.492c6.088,12.924,15.284,17.025,24.605,20.63C639.572,120.28,639.696,119.784,639.82,119.287&#10;&#9;&#9;L639.82,119.287z" transform="matrix(0.010061320848762989, 0.7136469483375549, -0.7136469483375549, 0.010061320848762989, 442.35235595703125, -310.71337890625)"/><path fill-rule="evenodd" clip-rule="evenodd" fill="#F5AB4F" d="M657.716,149.362c-8.449,7.207-13.298,15.41-10.688,18.393&#10;&#9;&#9;c2.488,2.981,11.436-0.373,19.885-7.456c8.452-7.084,13.298-15.287,10.688-18.269C675.116,139.048,666.168,142.278,657.716,149.362&#10;&#9;&#9;L657.716,149.362z" transform="matrix(0.010061320848762989, 0.7136469483375549, -0.7136469483375549, 0.010061320848762989, 442.35235595703125, -310.71337890625)"/><path fill-rule="evenodd" clip-rule="evenodd" fill="#F5AB4F" d="M659.581,104.624c-6.215,5.219-9.693,11.309-7.831,13.422&#10;&#9;&#9;c1.741,2.234,8.327-0.124,14.542-5.346c6.338-5.219,9.817-11.309,7.953-13.544C672.382,96.917,665.795,99.405,659.581,104.624&#10;&#9;&#9;L659.581,104.624z" transform="matrix(0.010061320848762989, 0.7136469483375549, -0.7136469483375549, 0.010061320848762989, 442.35235595703125, -310.71337890625)"/><path fill-rule="evenodd" clip-rule="evenodd" fill="#F5AB4F" d="M645.041,125.129c-6.214-3.356-12.304-4.226-13.422-2.112&#10;&#9;&#9;c-1.244,2.237,2.858,6.711,9.072,10.065c6.212,3.356,12.179,4.35,13.422,2.113C655.231,132.958,651.254,128.483,645.041,125.129&#10;&#9;&#9;L645.041,125.129z" transform="matrix(0.010061320848762989, 0.7136469483375549, -0.7136469483375549, 0.010061320848762989, 442.35235595703125, -310.71337890625)"/><path fill-rule="evenodd" clip-rule="evenodd" fill="#F5AB4F" d="M653.865,81.881c3.851-1.988,7.456-2.112,7.953-0.372&#10;&#9;&#9;c0.497,1.738-2.237,4.598-6.214,6.463c-3.854,1.988-7.456,2.112-7.953,0.372C647.152,86.604,649.888,83.746,653.865,81.881&#10;&#9;&#9;L653.865,81.881z" transform="matrix(0.010061320848762989, 0.7136469483375549, -0.7136469483375549, 0.010061320848762989, 442.35235595703125, -310.71337890625)"/><path fill-rule="evenodd" clip-rule="evenodd" fill="#F5AB4F" d="M624.412,89.213c2.858-3.23,6.088-4.723,7.208-3.354&#10;&#9;&#9;c1.118,1.366-0.248,5.219-3.108,8.449c-2.981,3.232-6.212,4.723-7.332,3.356C620.062,96.173,621.554,92.443,624.412,89.213&#10;&#9;&#9;L624.412,89.213z" transform="matrix(0.010061320848762989, 0.7136469483375549, -0.7136469483375549, 0.010061320848762989, 442.35235595703125, -310.71337890625)"/><path fill-rule="evenodd" clip-rule="evenodd" fill="#F5AB4F" d="M663.683,213.237c-11.434,9.571-17.896,20.757-14.542,24.731&#10;&#9;&#9;c3.481,4.102,15.535-0.372,26.969-9.941c11.557-9.692,18.02-20.754,14.539-24.855C687.294,199.07,675.24,203.545,663.683,213.237&#10;&#9;&#9;L663.683,213.237z" transform="matrix(0.010061320848762989, 0.7136469483375549, -0.7136469483375549, 0.010061320848762989, 442.35235595703125, -310.71337890625)"/><path fill-rule="evenodd" clip-rule="evenodd" fill="#F5AB4F" d="M630.127,209.635c-3.354-6.214-7.952-10.315-10.189-9.072&#10;&#9;&#9;c-2.113,1.244-1.244,7.208,2.113,13.422c3.354,6.215,7.829,10.314,10.066,9.072C634.353,221.813,633.484,215.85,630.127,209.635&#10;&#9;&#9;L630.127,209.635z" transform="matrix(0.010061320848762989, 0.7136469483375549, -0.7136469483375549, 0.010061320848762989, 442.35235595703125, -310.71337890625)"/><path fill-rule="evenodd" clip-rule="evenodd" fill="#F5AB4F" d="M617.204,252.511c-2.86-5.222-6.587-8.575-8.452-7.582&#10;&#9;&#9;c-1.865,0.995-1.118,5.966,1.741,11.185c2.733,5.095,6.587,8.451,8.325,7.456C620.683,262.576,619.938,257.605,617.204,252.511&#10;&#9;&#9;L617.204,252.511z" transform="matrix(0.010061320848762989, 0.7136469483375549, -0.7136469483375549, 0.010061320848762989, 442.35235595703125, -310.71337890625)"/><path fill-rule="evenodd" clip-rule="evenodd" fill="#F5AB4F" d="M667.533,279.477c7.208-1.864,13.547-1.367,14.294,1.244&#10;&#9;&#9;c0.62,2.485-4.723,6.088-11.933,7.952c-7.208,1.865-13.546,1.368-14.167-1.243C654.982,284.946,660.326,281.342,667.533,279.477&#10;&#9;&#9;L667.533,279.477z" transform="matrix(0.010061320848762989, 0.7136469483375549, -0.7136469483375549, 0.010061320848762989, 442.35235595703125, -310.71337890625)"/><path fill-rule="evenodd" clip-rule="evenodd" fill="#BC9B65" d="M570.85,278.483c0,0-7.334,0.869-6.09,12.551&#10;&#9;&#9;c1.244,11.806,5.219,276.011,5.219,276.011s0.375,12.554,14.417,20.011c13.919,7.578,126.138,54.931,126.138,54.931&#10;&#9;&#9;s11.928,5.964,28.955-1.618c17.027-7.578,97.059-59.528,97.059-59.528s12.181-7.33,11.188-20.752&#10;&#9;&#9;c-1.122-13.422-1.867-284.961-1.867-284.961s0.993-9.817-6.833-9.693c-7.955,0.125-57.79,4.351-57.79,4.351l-49.334,38.773&#10;&#9;&#9;C731.91,308.558,577.186,276.867,570.85,278.483L570.85,278.483z" transform="matrix(0.010061320848762989, 0.7136469483375549, -0.7136469483375549, 0.010061320848762989, 442.35235595703125, -310.71337890625)"/><path fill-rule="evenodd" clip-rule="evenodd" fill="#B08B5A" d="M702.454,638.63l8.079,3.356c0,0,11.928,5.964,28.955-1.618&#10;&#9;&#9;c17.027-7.578,97.059-59.528,97.059-59.528s3.232-1.986,6.212-5.592l-63.253,3.978l-9.568-4.598&#10;&#9;&#9;C769.938,574.628,709.043,632.169,702.454,638.63L702.454,638.63z" transform="matrix(0.010061320848762989, 0.7136469483375549, -0.7136469483375549, 0.010061320848762989, 442.35235595703125, -310.71337890625)"/><path fill-rule="evenodd" clip-rule="evenodd" fill="#C8AA6F" d="M702.454,638.63l8.079,3.356c0,0,5.592,2.855,14.664,2.11&#10;&#9;&#9;c24.48-8.947,54.309-64.871,54.309-64.871l1.738-309.441l-49.334,38.773c0,0-8.824-1.864-22.246-4.598L702.454,638.63z" transform="matrix(0.010061320848762989, 0.7136469483375549, -0.7136469483375549, 0.010061320848762989, 442.35235595703125, -310.71337890625)"/><path fill-rule="evenodd" clip-rule="evenodd" fill="#F3D493" d="M570.85,278.483c0,0-7.334,0.869-6.09,12.551&#10;&#9;&#9;c1.244,11.806,5.219,276.011,5.219,276.011s0.375,12.554,14.417,20.011c13.919,7.578,126.138,54.931,126.138,54.931&#10;&#9;&#9;s3.978,1.986,10.563,2.234c11.684-2.859,8.947-21.124,8.947-21.124c0.869-94.823,4.599-298.882,5.468-305.965&#10;&#9;&#9;c0.993-7.084-3.601-8.574-3.601-8.574S577.186,276.867,570.85,278.483L570.85,278.483z" transform="matrix(0.010061320848762989, 0.7136469483375549, -0.7136469483375549, 0.010061320848762989, 442.35235595703125, -310.71337890625)"/><path fill="#FFE6A9" d="M680.211,537.718c-13.298-4.598-26.222-9.196-38.774-13.67c-12.303-4.351-24.232-8.576-35.914-12.797&#10;&#9;&#9;c-8.079-2.86-15.287-12.182-20.382-24.982c-2.609-6.212-4.598-13.422-6.09-21.126c-1.366-7.58-2.113-15.783-2.113-23.984&#10;&#9;&#9;c0-8.327,0.747-16.031,2.113-22.867c1.492-6.959,3.604-12.925,6.09-17.771c5.219-9.941,12.427-15.16,20.63-13.42&#10;&#9;&#9;c11.682,2.733,23.86,5.467,36.163,8.325c12.677,2.857,25.725,5.842,39.147,8.824c9.568,2.236,18.393,11.93,24.73,25.973&#10;&#9;&#9;c3.232,6.959,5.84,15.162,7.583,23.859c1.862,8.7,2.731,18.145,2.731,27.59c0,3.604-0.248,7.21-0.621,10.811&#10;&#9;&#9;c-0.745-0.373-1.49-0.373-2.359-0.249c0.497-3.601,0.621-7.329,0.745-11.183c0-8.948-0.873-17.647-2.487-25.849&#10;&#9;&#9;c-1.738-8.203-4.102-15.783-7.207-22.37c-5.967-13.172-14.167-22.244-23.24-24.356c-13.298-3.108-26.345-6.091-39.022-9.072&#10;&#9;&#9;c-12.302-2.858-24.481-5.594-36.163-8.327c-7.707-1.865-14.417,3.105-19.388,12.429c-2.361,4.472-4.35,10.189-5.715,16.652&#10;&#9;&#9;c-1.244,6.46-1.989,13.67-1.989,21.499c0,7.704,0.621,15.41,1.989,22.618c1.365,7.083,3.354,13.919,5.715,19.885&#10;&#9;&#9;c4.846,11.928,11.558,20.628,19.14,23.363c11.682,4.102,23.735,8.323,35.914,12.549c12.553,4.474,25.476,8.948,38.774,13.67&#10;&#9;&#9;c3.23,1.122,6.214,0.998,8.948,0.124c0.124,1.37,0.373,2.86,0.745,4.102C686.797,538.96,683.565,538.96,680.211,537.718&#10;&#9;&#9;L680.211,537.718z" transform="matrix(0.010061320848762989, 0.7136469483375549, -0.7136469483375549, 0.010061320848762989, 442.35235595703125, -310.71337890625)"/><path fill-rule="evenodd" clip-rule="evenodd" fill="#B69560" d="M680.211,527.528c-13.174-4.475-26.098-8.948-38.774-13.298&#10;&#9;&#9;c-12.179-4.226-24.232-8.452-35.914-12.429c-6.835-2.359-12.926-10.314-17.275-21c-4.35-10.688-7.084-24.359-7.084-38.402l0,0&#10;&#9;&#9;c0-14.167,2.734-26.221,7.084-34.548c4.474-8.201,10.564-12.675,17.399-11.059c11.806,2.857,23.86,5.715,36.287,8.573&#10;&#9;&#9;c12.677,3.108,25.725,6.09,39.022,9.32c8.079,1.864,15.535,10.191,20.878,21.998c5.467,11.93,8.823,27.341,8.699,43.372l0,0&#10;&#9;&#9;c-0.124,8.948-1.241,17.022-3.232,23.983c-0.621-0.869,0.248-0.248-1.862-2.114c-2.237-1.862-8.079,1.618-8.824,6.713&#10;&#9;&#9;c-0.745,5.219-0.249,7.458,0.745,10.811c-3.603-1.862-7.083,1.494-8.077,7.955c0,0.248,0,0.372,0,0.496&#10;&#9;&#9;C686.425,528.77,683.316,528.646,680.211,527.528L680.211,527.528z" transform="matrix(0.010061320848762989, 0.7136469483375549, -0.7136469483375549, 0.010061320848762989, 442.35235595703125, -310.71337890625)"/><path fill-rule="evenodd" clip-rule="evenodd" fill="#FFE6A9" d="M715.752,533.368c-0.62,4.35-3.107,6.092-5.467,4.102&#10;&#9;&#9;c-2.363-1.986-3.729-7.082-3.108-11.308c0.745-4.226,3.108-6.092,5.592-4.102C715.132,524.048,716.497,529.143,715.752,533.368&#10;&#9;&#9;L715.752,533.368z" transform="matrix(0.010061320848762989, 0.7136469483375549, -0.7136469483375549, 0.010061320848762989, 442.35235595703125, -310.71337890625)"/><path fill-rule="evenodd" clip-rule="evenodd" fill="#B69560" d="M701.337,537.345c-0.745,4.723-3.48,6.714-6.09,4.475&#10;&#9;&#9;c-2.61-2.234-3.976-7.83-3.354-12.429c0.745-4.723,3.479-6.709,5.964-4.599C700.468,527.031,702.082,532.623,701.337,537.345&#10;&#9;&#9;L701.337,537.345z" transform="matrix(0.010061320848762989, 0.7136469483375549, -0.7136469483375549, 0.010061320848762989, 442.35235595703125, -310.71337890625)"/><path fill-rule="evenodd" clip-rule="evenodd" fill="#B69560" d="M706.06,516.594c-0.373,2.731-1.864,3.849-3.356,2.607&#10;&#9;&#9;c-1.49-1.242-2.359-4.351-1.987-7.081c0.497-2.612,1.987-3.854,3.479-2.612C705.687,510.749,706.556,513.981,706.06,516.594&#10;&#9;&#9;L706.06,516.594z" transform="matrix(0.010061320848762989, 0.7136469483375549, -0.7136469483375549, 0.010061320848762989, 442.35235595703125, -310.71337890625)"/><path fill-rule="evenodd" clip-rule="evenodd" fill="#B69560" d="M718.115,510.253c-0.5,3.232-2.363,4.598-4.226,3.108&#10;&#9;&#9;c-1.742-1.49-2.735-5.22-2.239-8.452c0.497-3.232,2.363-4.722,4.102-3.232C717.615,503.171,718.612,507.024,718.115,510.253&#10;&#9;&#9;L718.115,510.253z" transform="matrix(0.010061320848762989, 0.7136469483375549, -0.7136469483375549, 0.010061320848762989, 442.35235595703125, -310.71337890625)"/>
</svg>